<?xml version="1.0" encoding="UTF-8"?>
<svg version="1.1" xmlns="http://www.w3.org/2000/svg" width="681" height="454">
<path d="M0 0 C224.73 0 449.46 0 681 0 C681 149.82 681 299.64 681 454 C456.27 454 231.54 454 0 454 C0 304.18 0 154.36 0 0 Z " fill="#FDFDFD" transform="translate(0,0)"/>
<path d="M0 0 C0.66 0 1.32 0 2 0 C2 31.68 2 63.36 2 96 C-12.85 96.33 -27.7 96.66 -43 97 C-52.08114749 100.82503735 -52.08114749 100.82503735 -61 105 C-61 105.66 -61 106.32 -61 107 C-61.66 107 -62.32 107 -63 107 C-68.45350709 117.75411211 -71.91178008 126.12423053 -68.875 138.125 C-67.22353143 143.08723259 -64.71255764 147.29651952 -61 151 C-60.35933594 151.3196875 -59.71867187 151.639375 -59.05859375 151.96875 C-56.51478134 153.24306969 -54.98514566 154.97294148 -53 157 C-51.50525794 158.11905823 -49.98246027 159.2013614 -48.4375 160.25 C-44.96128525 162.63958322 -41.52326409 165.0633042 -38.125 167.5625 C-31.90583218 172.10898749 -25.58321585 176.50566701 -19.25634766 180.90063477 C-14.6506377 184.10871568 -10.12327237 187.37769842 -5.69799805 190.83154297 C-3.89172332 192.19014093 -3.89172332 192.19014093 -1 193 C1.83870033 195.19031947 2.88777186 196.3358121 3.49219131 199.91288376 C3.48666056 201.62188795 3.48666056 201.62188795 3.48101807 203.36541748 C3.48651672 204.67511002 3.49201538 205.98480255 3.49768066 207.33418274 C3.48352484 208.78366455 3.46898561 210.23314267 3.45410156 211.68261719 C3.45297316 213.21028107 3.4536068 214.73794712 3.45587158 216.26560974 C3.45701997 220.41212473 3.43349073 224.55817756 3.40557575 228.70458508 C3.38058279 233.03807932 3.37822177 237.37158397 3.37347412 241.70513916 C3.36103813 249.91098784 3.32820815 258.11662354 3.28807616 266.3223784 C3.2433778 275.66446405 3.22137629 285.00655984 3.20129442 294.3487258 C3.15947602 313.56593798 3.08911191 332.78295187 3 352 C0.7507005 352.32779421 -1.49886208 352.65378347 -3.74853516 352.97900391 C-5.62758041 353.25159531 -5.62758041 353.25159531 -7.54458618 353.5296936 C-38.25345605 357.7093892 -71.82342621 346.49112671 -97.5 330.25 C-98.32588623 329.72849365 -99.15177246 329.2069873 -100.00268555 328.66967773 C-106.2873894 324.62292045 -111.64701387 320.22295408 -117 315 C-118.05249115 314.13353054 -119.11380014 313.27754497 -120.1875 312.4375 C-123.12295858 309.8934359 -125.56124946 307.19730619 -128.0703125 304.2421875 C-130.21625651 301.74872219 -132.45104026 299.34994346 -134.6875 296.9375 C-137.52919146 293.78006505 -139.97850158 290.80178521 -141.9296875 286.99609375 C-143.36712748 284.31532065 -145.04216981 281.80832715 -146.6875 279.25 C-166.35601024 247.28867086 -175.70615964 205.7727877 -166.984375 168.6640625 C-166.65953125 167.45492187 -166.3346875 166.24578125 -166 165 C-165.60683461 163.38342823 -165.21638657 161.76619405 -164.828125 160.1484375 C-161.25937301 145.60825048 -161.25937301 145.60825048 -158.01953125 139.08984375 C-156.75154485 136.49071453 -155.74070387 133.81804572 -154.6875 131.125 C-152.51322051 125.8542234 -149.80689822 121.21034733 -146.6484375 116.47265625 C-144.94420206 113.98334372 -144.94420206 113.98334372 -143.4140625 111.18359375 C-142.94742188 110.46300781 -142.48078125 109.74242187 -142 109 C-141.34 109 -140.68 109 -140 109 C-139.7525 108.278125 -139.505 107.55625 -139.25 106.8125 C-137.86693509 103.70060396 -136.20877083 101.58741726 -134 99 C-133.195625 98.01 -132.39125 97.02 -131.5625 96 C-125.27272727 88.63636364 -125.27272727 88.63636364 -122 87 C-123.11143589 89.82133726 -124.26810443 92.60323498 -125.5 95.375 C-134.15561514 116.29273659 -133.88875034 142.1496418 -125.3984375 163.0078125 C-124.36793729 165.46614358 -123.28680901 167.88163785 -122.171875 170.3046875 C-121 173 -121 173 -121 175 C-120.34 175 -119.68 175 -119 175 C-118.08368615 179.07250602 -118.14746124 182.33312716 -118.73046875 186.4375 C-120.41544621 202.45699581 -117.94312804 218.32408519 -112.76953125 233.49609375 C-112 236 -112 236 -112 239 C-111.34 239 -110.68 239 -110 239 C-109.50371094 240.05058594 -109.00742188 241.10117187 -108.49609375 242.18359375 C-105.06115355 249.32843963 -101.71843293 256.0198724 -96.578125 262.12109375 C-95.09190895 263.89057376 -93.83306211 265.6979808 -92.5625 267.625 C-87.52842826 274.74157048 -78.77730653 282.11134673 -71 286 C-71 286.66 -71 287.32 -71 288 C-70.12214844 288.27199219 -69.24429688 288.54398437 -68.33984375 288.82421875 C-65.20586625 289.92752545 -62.48341864 291.24224728 -59.5625 292.8125 C-47.63101954 298.82998767 -35.1888518 303.68224539 -21.75 300 C-20.8425 299.67 -19.935 299.34 -19 299 C-19 298.34 -19 297.68 -19 297 C-18.278125 296.46375 -17.55625 295.9275 -16.8125 295.375 C-11.94163484 291.26182497 -8.87255509 286.35076179 -8 280 C-7.32833754 269.13228111 -7.292253 259.87798499 -13.65234375 250.5859375 C-16.6879189 247.24225905 -20.08893394 244.90036407 -23.8125 242.375 C-25.34336793 241.31773714 -26.87329767 240.25911471 -28.40234375 239.19921875 C-29.17175293 238.66731934 -29.94116211 238.13541992 -30.73388672 237.58740234 C-34.16266145 235.18556079 -37.51751104 232.68750705 -40.875 230.1875 C-46.1372106 226.27526968 -51.48289213 222.69650235 -57.12109375 219.33984375 C-57.74113281 218.89769531 -58.36117187 218.45554687 -59 218 C-59 217.34 -59 216.68 -59 216 C-59.66 216 -60.32 216 -61 216 C-61 215.34 -61 214.68 -61 214 C-61.65742188 213.96003906 -62.31484375 213.92007813 -62.9921875 213.87890625 C-67.45594921 212.5745603 -70.52713844 209.814111 -74.125 206.9375 C-75.6424289 205.74897756 -77.1606586 204.56147682 -78.6796875 203.375 C-79.41670898 202.79621094 -80.15373047 202.21742188 -80.91308594 201.62109375 C-84.44210716 198.87978573 -88.06819024 196.28245634 -91.703125 193.68359375 C-96.35907146 190.27081667 -99.93047377 187.10091989 -103.3125 182.375 C-104.00988281 181.41335937 -104.70726562 180.45171875 -105.42578125 179.4609375 C-107 177 -107 177 -107 175 C-107.66 175 -108.32 175 -109 175 C-120.27591606 151.52962415 -125.90085139 128.3577235 -117.3515625 102.71875 C-116.68253906 100.87796875 -116.68253906 100.87796875 -116 99 C-115.67773438 98.1028125 -115.35546875 97.205625 -115.0234375 96.28125 C-111.77898303 88.2688581 -106.68787494 80.48044768 -101 74 C-100.34 74 -99.68 74 -99 74 C-98.731875 73.360625 -98.46375 72.72125 -98.1875 72.0625 C-97 70 -97 70 -94 69 C-93.505 67.515 -93.505 67.515 -93 66 C-91.22265625 64.39453125 -91.22265625 64.39453125 -89.0625 62.8125 C-88.35222656 62.28269531 -87.64195312 61.75289062 -86.91015625 61.20703125 C-85 60 -85 60 -83 60 C-83 59.34 -83 58.68 -83 58 C-69.30502295 51.06482277 -56.80051656 45.44035174 -41.25 44.5625 C-35.14276677 43.83650981 -31.98797602 41.89916548 -28.1875 37.1875 C-26.83615064 35.4153476 -25.53376271 33.62130826 -24.25878906 31.79345703 C-22.29234545 28.99177069 -20.16882232 26.32309859 -18.0625 23.625 C-17.25164916 22.55931972 -16.44177162 21.49289825 -15.6328125 20.42578125 C-12.12628793 15.82939094 -8.48512955 11.33976298 -4.84594727 6.84814453 C-2.16796592 3.59454489 -2.16796592 3.59454489 0 0 Z " fill="#2669A6" transform="translate(347,59)"/>
<path d="M0 0 C3.10935927 1.46862698 4.80418737 2.66889922 6.84765625 5.45703125 C7.62363159 6.49815063 7.62363159 6.49815063 8.4152832 7.56030273 C8.95886475 8.30352783 9.50244629 9.04675293 10.0625 9.8125 C15.31772485 16.84893039 20.69038141 23.71693757 26.58666992 30.23291016 C28 32 28 32 29.4855957 34.57568359 C31.43731172 37.66569535 33.09001957 39.7684426 36 42 C41.08851891 43.08709721 45.92228873 43.03237209 51.10314941 42.83666992 C55.26298099 42.69007339 59.42039642 42.72694384 63.58203125 42.765625 C64.400737 42.77134521 65.21944275 42.77706543 66.06295776 42.78295898 C92.36007233 43.1676476 115.62448826 57.01066364 134 75 C136.06430047 77.28654399 138.02735855 79.63283027 140 82 C140.66 82.33 141.32 82.66 142 83 C143.89616582 85.8620031 145.41094962 88.95953353 147 92 C147.84498047 93.61068359 147.84498047 93.61068359 148.70703125 95.25390625 C159.84143777 116.96478606 165.57617186 142.01259437 160.1875 166.3125 C160.00445313 167.15337158 159.82140625 167.99424316 159.6328125 168.8605957 C157.83963486 176.95732567 155.95039249 184.61006978 152.05078125 191.97265625 C150.18872336 195.5652512 148.61411167 199.29097744 147 203 C146.34 203 145.68 203 145 203 C144.63648438 203.804375 144.63648438 203.804375 144.265625 204.625 C137.76536451 216.82301968 126.27261846 228.52700832 114 235 C113.34 235 112.68 235 112 235 C112 235.66 112 236.32 112 237 C95.43574335 246.40583418 80.03111642 249 61 249 C61 232.17 61 215.34 61 198 C66.28 197.34 71.56 196.68 77 196 C87.30129446 192.7223154 97.64306555 186.31296668 103.32421875 176.77734375 C104.2773523 174.88110964 105.14755286 172.94357948 106 171 C106.66 171 107.32 171 108 171 C108.11988281 170.16210938 108.23976563 169.32421875 108.36328125 168.4609375 C108.92345981 165.41604054 109.71582286 162.55459009 110.61352539 159.59643555 C114.17998992 147.34666903 113.27580102 135.99287524 107.4375 124.47265625 C105.51533333 121.16632065 103.45500402 117.98845925 101.234375 114.875 C100 113 100 113 99 110 C97.515 109.505 97.515 109.505 96 109 C95.67 108.34 95.34 107.68 95 107 C93.39239523 105.97883545 91.73732797 105.03170911 90.0625 104.125 C89.16660156 103.63257813 88.27070313 103.14015625 87.34765625 102.6328125 C86.24292969 102.09398437 85.13820313 101.55515625 84 101 C82.97241577 100.48373047 82.97241577 100.48373047 81.92407227 99.95703125 C74.40820333 96.52690748 66.97004927 96.13001928 58.8125 95.75 C57.50474609 95.67265625 56.19699219 95.5953125 54.84960938 95.515625 C39.2298653 94.51273407 39.2298653 94.51273407 23.65625 95.49609375 C19.23920578 96.10485305 14.95045321 96.10961392 10.5 96.0625 C9.67757813 96.05798828 8.85515625 96.05347656 8.0078125 96.04882812 C6.00517604 96.03718489 4.00257773 96.01925556 2 96 C0.81426345 89.51564853 0.9101178 83.15447364 0.96875 76.578125 C1.01575156 66.02279281 0.95910851 55.47553044 0.78125 44.921875 C0.77017212 44.25655258 0.75909424 43.59123016 0.74768066 42.90574646 C0.6799736 38.87048467 0.60878357 34.83529082 0.53643799 30.80010986 C0.47432722 27.30557268 0.41504383 23.81098741 0.35546875 20.31640625 C0.2396277 13.54422345 0.12085047 6.77209522 0 0 Z " fill="#BDBEC1" transform="translate(356,59)"/>
<path d="M0 0 C0.495 0.99 0.495 0.99 1 2 C0.07421875 4.13671875 0.07421875 4.13671875 -1.3125 6.6875 C-10.56479594 24.57868 -10.92757691 49.32364227 -5.2890625 68.4296875 C-3.46100053 73.4928652 -1.42187221 78.41484207 0.828125 83.3046875 C2 86 2 86 2 88 C2.66 88 3.32 88 4 88 C4.91631385 92.07250602 4.85253876 95.33312716 4.26953125 99.4375 C2.58455379 115.45699581 5.05687196 131.32408519 10.23046875 146.49609375 C11 149 11 149 11 152 C11.66 152 12.32 152 13 152 C13.49628906 153.05058594 13.99257812 154.10117187 14.50390625 155.18359375 C17.93884645 162.32843963 21.28156707 169.0198724 26.421875 175.12109375 C27.90809105 176.89057376 29.16693789 178.6979808 30.4375 180.625 C35.47157174 187.74157048 44.22269347 195.11134673 52 199 C52 199.66 52 200.32 52 201 C52.87785156 201.27199219 53.75570312 201.54398438 54.66015625 201.82421875 C57.79413375 202.92752545 60.51658136 204.24224728 63.4375 205.8125 C75.36898046 211.82998767 87.8111482 216.68224539 101.25 213 C102.1575 212.67 103.065 212.34 104 212 C104 211.34 104 210.68 104 210 C105.65002828 208.64613064 107.3174387 207.31321858 109 206 C109.33 205.34 109.66 204.68 110 204 C110.99 204 111.98 204 113 204 C113.33 204.66 113.66 205.32 114 206 C114.94875 205.814375 115.8975 205.62875 116.875 205.4375 C120 205 120 205 122 206 C122.66 182.24 123.32 158.48 124 134 C124.33 134 124.66 134 125 134 C125 177.23 125 220.46 125 265 C90.02172776 270.38127265 55.42137683 262.17607932 25.5 243.25 C24.67411377 242.72849365 23.84822754 242.2069873 22.99731445 241.66967773 C16.7126106 237.62292045 11.35298613 233.22295408 6 228 C4.94750885 227.13353054 3.88619986 226.27754497 2.8125 225.4375 C-0.12295858 222.8934359 -2.56124946 220.19730619 -5.0703125 217.2421875 C-7.21625651 214.74872219 -9.45104026 212.34994346 -11.6875 209.9375 C-14.52919146 206.78006505 -16.97850158 203.80178521 -18.9296875 199.99609375 C-20.36712748 197.31532065 -22.04216981 194.80832715 -23.6875 192.25 C-43.35601024 160.28867086 -52.70615964 118.7727877 -43.984375 81.6640625 C-43.65953125 80.45492187 -43.3346875 79.24578125 -43 78 C-42.60683461 76.38342823 -42.21638657 74.76619405 -41.828125 73.1484375 C-38.25937301 58.60825048 -38.25937301 58.60825048 -35.01953125 52.08984375 C-33.75154485 49.49071453 -32.74070387 46.81804572 -31.6875 44.125 C-29.51322051 38.8542234 -26.80689822 34.21034733 -23.6484375 29.47265625 C-21.94420206 26.98334372 -21.94420206 26.98334372 -20.4140625 24.18359375 C-19.94742188 23.46300781 -19.48078125 22.74242187 -19 22 C-18.34 22 -17.68 22 -17 22 C-16.7525 21.278125 -16.505 20.55625 -16.25 19.8125 C-14.86693509 16.70060396 -13.20877083 14.58741726 -11 12 C-10.195625 11.01 -9.39125 10.02 -8.5625 9 C-6.15839685 6.18544022 -3.65268357 3.57899791 -1 1 C-0.67 0.67 -0.34 0.34 0 0 Z " fill="#213578" transform="translate(224,146)"/>
<path d="M0 0 C4.78089884 1.91235954 6.7073476 3.23696869 10 7 C10 7.66 10 8.32 10 9 C10.53625 9.0825 11.0725 9.165 11.625 9.25 C17.74029909 11.18114708 21.32341786 15.26744409 25.328125 20.04296875 C27.11910125 22.19854757 27.11910125 22.19854757 29.8125 24.75 C32.81064532 27.83380662 34 29.6890978 34 34 C34.66 34 35.32 34 36 34 C39.48007531 39.81846583 42.24483084 45.44005527 44 52 C44.20625 52.75023437 44.4125 53.50046875 44.625 54.2734375 C48.74913471 72.43108614 46.08523609 90.99543339 39 108 C38.34 108 37.68 108 37 108 C36.92523438 108.69738281 36.85046875 109.39476562 36.7734375 110.11328125 C35.79816803 113.75330213 33.92251304 116.28050479 31.625 119.1875 C31.18309326 119.75267334 30.74118652 120.31784668 30.28588867 120.90014648 C24.13090098 128.56499079 16.99155482 135.7911871 8 140 C7.34 140 6.68 140 6 140 C6 140.66 6 141.32 6 142 C4.02 142.33 2.04 142.66 0 143 C0 95.81 0 48.62 0 0 Z " fill="#999A9A" transform="translate(356,265)"/>
<path d="M0 0 C0.66 0 1.32 0 2 0 C2 0.66 2 1.32 2 2 C2.66 2 3.32 2 4 2 C5.35386936 3.65002828 6.68678142 5.3174387 8 7 C8.66 7.33 9.32 7.66 10 8 C10 8.66 10 9.32 10 10 C10.721875 10.2475 11.44375 10.495 12.1875 10.75 C15.86397353 12.38398823 19.16101709 14.32203419 21 18 C21.99 18.33 22.98 18.66 24 19 C24 19.66 24 20.32 24 21 C24.66 21 25.32 21 26 21 C26 21.66 26 22.32 26 23 C26.66 23 27.32 23 28 23 C28 23.66 28 24.32 28 25 C28.66 25 29.32 25 30 25 C30.33 25.66 30.66 26.32 31 27 C31.845625 27.495 32.69125 27.99 33.5625 28.5 C34.366875 28.995 35.17125 29.49 36 30 C36 30.66 36 31.32 36 32 C36.61875 32.2475 37.2375 32.495 37.875 32.75 C40.40358627 34.23740369 40.71839004 35.43678009 42 38 C43.95021083 39.22527948 43.95021083 39.22527948 46 40 C46.99 40.495 46.99 40.495 48 41 C48 41.66 48 42.32 48 43 C48.66 43 49.32 43 50 43 C50 67.09 50 91.18 50 116 C47.63328253 112.84437671 46.03551023 110.10164733 44.3996582 106.56762695 C37.88335577 92.5644386 28.18463862 82.21212702 16.1875 72.5625 C15.51396484 72.01529297 14.84042969 71.46808594 14.14648438 70.90429688 C10.25513457 67.64835412 10.25513457 67.64835412 5.98953247 64.94293213 C3.51191395 63.48907201 1.82435621 62.23140135 0 60 C-1.12097088 55.42550998 -0.93222731 50.97469868 -0.78125 46.2890625 C-0.76631194 44.95245766 -0.75493229 43.61580875 -0.74694824 42.27914429 C-0.71653292 38.77627682 -0.6380761 35.27610195 -0.54931641 31.77429199 C-0.46718692 28.19495063 -0.43087991 24.61517009 -0.390625 21.03515625 C-0.30506058 14.02233762 -0.16869117 7.01129836 0 0 Z " fill="#CBCCCC" transform="translate(356,194)"/>
<path d="M0 0 C-1.30361686 3.36668025 -2.77564402 6.57813361 -4.375 9.8125 C-13.27142648 29.7172643 -14.16450731 53.00712557 -6.375 73.4375 C-4 79.69075145 -4 79.69075145 -4 83 C-4.66 83 -5.32 83 -6 83 C-6.33 82.01 -6.66 81.02 -7 80 C-8.485 80.495 -8.485 80.495 -10 81 C-10.99 81 -11.98 81 -13 81 C-13.66 81.99 -14.32 82.98 -15 84 C-15.96849248 81.54526749 -16.92475597 79.086795 -17.875 76.625 C-18.14441406 75.94566406 -18.41382813 75.26632813 -18.69140625 74.56640625 C-22.44773222 64.76331164 -23.32308043 55.51909193 -23.25 45.0625 C-23.25773438 43.95970703 -23.26546875 42.85691406 -23.2734375 41.72070312 C-23.23801597 26.71082968 -19.35828148 14.44537784 -13 1 C-10.525 1.99 -10.525 1.99 -8 3 C-7.67 2.01 -7.34 1.02 -7 0 C-4.3333581 -1.33332095 -2.83319697 -0.67102033 0 0 Z " fill="#F4F8F8" transform="translate(238,144)"/>
<path d="M0 0 C3.96 1.98 3.96 1.98 8 4 C7.67 5.65 7.34 7.3 7 9 C7.66 9 8.32 9 9 9 C10.02611949 10.65071396 11.02308143 12.31970006 12 14 C13.27159652 15.85602615 13.27159652 15.85602615 15 17 C17.62570704 17.25069913 17.62570704 17.25069913 20 17 C20.144375 17.94875 20.28875 18.8975 20.4375 19.875 C20.953125 20.90625 21.46875 21.9375 22 23 C24.10245983 23.69918442 24.10245983 23.69918442 26.5 24 C28.9609375 24.37890625 28.9609375 24.37890625 31 25 C32.125 27.9375 32.125 27.9375 33 31 C35.29598193 32.08301035 37.63477442 33.07796291 40 34 C41.70586575 35.62652316 43.3777546 37.29006566 45 39 C48.41652875 41.27768584 51.96962251 41.53495644 56 42 C56.12375 42.969375 56.2475 43.93875 56.375 44.9375 C56.58125 45.948125 56.7875 46.95875 57 48 C59.2236068 49.2981424 59.2236068 49.2981424 63 49 C63 49.66 63 50.32 63 51 C63.66 51 64.32 51 65 51 C65 51.66 65 52.32 65 53 C66.485 53.495 66.485 53.495 68 54 C69.485 54.99 69.485 54.99 71 56 C72.485 56.495 72.485 56.495 74 57 C74 57.66 74 58.32 74 59 C74.66 59 75.32 59 76 59 C76 58.34 76 57.68 76 57 C77.32 57 78.64 57 80 57 C80 59.31 80 61.62 80 64 C83.3863251 65.50930183 83.3863251 65.50930183 87 66 C87.66 67.65 88.32 69.3 89 71 C89.66 71 90.32 71 91 71 C91.66 72.65 92.32 74.3 93 76 C93.66 76 94.32 76 95 76 C95 76.66 95 77.32 95 78 C96.32 78 97.64 78 99 78 C99 78.99 99 79.98 99 81 C100.88316159 82.10836423 100.88316159 82.10836423 103 83 C103.66 82.67 104.32 82.34 105 82 C105.02911321 85.0833134 105.04683682 88.16659125 105.0625 91.25 C105.07087891 92.12269531 105.07925781 92.99539063 105.08789062 93.89453125 C105.09111328 94.73886719 105.09433594 95.58320313 105.09765625 96.453125 C105.10289307 97.22817383 105.10812988 98.00322266 105.11352539 98.80175781 C105.00006375 100.99876549 104.56454334 102.88075722 104 105 C103.93375493 106.74886981 103.91447405 108.50002748 103.9375 110.25 C103.94652344 111.14203125 103.95554687 112.0340625 103.96484375 112.953125 C103.97644531 113.62859375 103.98804688 114.3040625 104 115 C104.99 113.515 104.99 113.515 106 112 C106.05447047 113.41623216 106.09300508 114.83308191 106.125 116.25 C106.14820313 117.03890625 106.17140625 117.8278125 106.1953125 118.640625 C105.9828378 121.20731941 105.28654105 122.7916067 104 125 C103.67 123.68 103.34 122.36 103 121 C101.02 121.33 99.04 121.66 97 122 C97 121.01 97 120.02 97 119 C96.34 118.67 95.68 118.34 95 118 C95.474375 117.278125 95.94875 116.55625 96.4375 115.8125 C100.68831818 108.16102728 100.25391268 96.25603813 98.24609375 87.83984375 C95.1217766 79.71661916 90.24386623 75.16070635 83.1875 70.375 C81.65663207 69.31773714 80.12670233 68.25911471 78.59765625 67.19921875 C77.82824707 66.66731934 77.05883789 66.13541992 76.26611328 65.58740234 C72.83733855 63.18556079 69.48248896 60.68750705 66.125 58.1875 C60.8627894 54.27526968 55.51710787 50.69650235 49.87890625 47.33984375 C49.25886719 46.89769531 48.63882813 46.45554687 48 46 C48 45.34 48 44.68 48 44 C47.34 44 46.68 44 46 44 C46 43.34 46 42.68 46 42 C45.34257812 41.96003906 44.68515625 41.92007813 44.0078125 41.87890625 C39.54405079 40.5745603 36.47286156 37.814111 32.875 34.9375 C31.3575711 33.74897756 29.8393414 32.56147682 28.3203125 31.375 C27.21478027 30.50681641 27.21478027 30.50681641 26.08691406 29.62109375 C22.55789284 26.87978573 18.93180976 24.28245634 15.296875 21.68359375 C14.53890625 21.12800781 13.7809375 20.57242188 13 20 C12.17757812 19.40445313 11.35515625 18.80890625 10.5078125 18.1953125 C7.49763876 15.56023829 5.37253628 12.72378249 3.125 9.4375 C2.50238281 8.5722168 2.50238281 8.5722168 1.8671875 7.68945312 C0.6953125 5.99609375 0.6953125 5.99609375 -1 3 C-0.67 2.01 -0.34 1.02 0 0 Z " fill="#2A5288" transform="translate(240,231)"/>
<path d="M0 0 C0.66 0 1.32 0 2 0 C2 31.68 2 63.36 2 96 C-11.53 96 -25.06 96 -39 96 C-31.32672956 92.16336478 -22.39040543 92.76315021 -13.9375 92.4375 C-8.5234375 92.2209375 -8.5234375 92.2209375 -3 92 C-3 84.41 -3 76.82 -3 69 C-2.34 69 -1.68 69 -1 69 C-1.33 59.1 -1.66 49.2 -2 39 C-2.33 39 -2.66 39 -3 39 C-3 33.06 -3 27.12 -3 21 C-5.31 21.66 -7.62 22.32 -10 23 C-10 24.65 -10 26.3 -10 28 C-12.66666667 28.66666667 -15.33333333 29.33333333 -18 30 C-18.12375 30.78375 -18.2475 31.5675 -18.375 32.375 C-19 35 -19 35 -21 37 C-21.99 37 -22.98 37 -24 37 C-24.859375 34.96484375 -24.859375 34.96484375 -25 32 C-23.42976093 29.23769044 -21.34102485 26.94327293 -19.25 24.5625 C-18.05098869 23.14545674 -16.85309332 21.72746858 -15.65625 20.30859375 C-15.04652344 19.59429199 -14.43679688 18.87999023 -13.80859375 18.14404297 C-11.0433656 14.86593367 -8.39215734 11.50252514 -5.75 8.125 C-5.2849707 7.53662354 -4.81994141 6.94824707 -4.34082031 6.34204102 C-1.94876466 3.31613939 -1.94876466 3.31613939 0 0 Z " fill="#2D8DC6" transform="translate(347,59)"/>
<path d="M0 0 C1.65 0.33 3.3 0.66 5 1 C5 52.15 5 103.3 5 156 C4.67 156 4.34 156 4 156 C3.67 125.97 3.34 95.94 3 65 C2.67 80.84 2.34 96.68 2 113 C1.67 113 1.34 113 1 113 C0.67 105.74 0.34 98.48 0 91 C-0.99 91.495 -0.99 91.495 -2 92 C-2.02693575 89.87506859 -2.04636628 87.75004088 -2.0625 85.625 C-2.07410156 84.44164062 -2.08570313 83.25828125 -2.09765625 82.0390625 C-2 79 -2 79 -1 77 C-0.92602863 75.00647146 -0.91658172 73.01041578 -0.9375 71.015625 C-0.94587891 69.7795752 -0.95425781 68.54352539 -0.96289062 67.27001953 C-0.96909424 66.61342346 -0.97529785 65.95682739 -0.98168945 65.28033447 C-1.10303102 51.82557713 -0.78204812 38.43446955 0 25 C0.33 25 0.66 25 1 25 C1.33 17.41 1.66 9.82 2 2 C1.34 2 0.68 2 0 2 C0 1.34 0 0.68 0 0 Z " fill="#4D75A3" transform="translate(345,255)"/>
<path d="M0 0 C0.66 0 1.32 0 2 0 C2 33 2 66 2 100 C-13.18 100.33 -28.36 100.66 -44 101 C-53.22112172 102.90505517 -53.22112172 102.90505517 -56 106 C-56.66 106 -57.32 106 -58 106 C-61.23854277 108.73252046 -62.48499105 111.11778958 -64 115 C-65.0209375 116.2684375 -65.0209375 116.2684375 -66.0625 117.5625 C-67.91522668 119.89334969 -68.49069923 121.1479157 -69 124 C-69.495 124.495 -69.495 124.495 -70 125 C-70.21326403 130.6047709 -70.21326403 130.6047709 -69 136 C-69.66 136.99 -70.32 137.98 -71 139 C-73.64997552 129.06259179 -71.6795268 120.98996416 -67 112 C-65.45703125 109.6484375 -65.45703125 109.6484375 -64 108 C-63.34 108 -62.68 108 -62 108 C-62 107.34 -62 106.68 -62 106 C-60.09375 104.59765625 -60.09375 104.59765625 -57.5 103.0625 C-56.6646875 102.55847656 -55.829375 102.05445313 -54.96875 101.53515625 C-36.02755085 91.74056248 -25.99635409 97 1 97 C0.67 64.99 0.34 32.98 0 0 Z " fill="#BDE1EE" transform="translate(348,58)"/>
<path d="M0 0 C0.33 0.66 0.66 1.32 1 2 C0.07421875 4.13671875 0.07421875 4.13671875 -1.3125 6.6875 C-5.18831033 14.18216086 -6.59687886 21.74546818 -8 30 C-8.99 30 -9.98 30 -11 30 C-11.66 30.66 -12.32 31.32 -13 32 C-13 31.34 -13 30.68 -13 30 C-16.32901247 32.21934164 -16.75023244 33.34683329 -18 37 C-18.99 36.67 -19.98 36.34 -21 36 C-23.09749995 38.35968744 -23.96905704 39.54616994 -24.1875 42.75 C-24.125625 43.4925 -24.06375 44.235 -24 45 C-26.49064888 45.68707555 -28.37886292 46 -31 46 C-30.08266934 39.93906526 -27.03468231 35.23774495 -24 30 C-23.2884375 28.76636719 -23.2884375 28.76636719 -22.5625 27.5078125 C-20.10478757 23.39699588 -20.10478757 23.39699588 -19 22 C-18.34 22 -17.68 22 -17 22 C-16.62875 20.9171875 -16.62875 20.9171875 -16.25 19.8125 C-14.86693509 16.70060396 -13.20877083 14.58741726 -11 12 C-10.195625 11.01 -9.39125 10.02 -8.5625 9 C-6.15839685 6.18544022 -3.65268357 3.57899791 -1 1 C-0.67 0.67 -0.34 0.34 0 0 Z " fill="#244682" transform="translate(224,146)"/>
<path d="M0 0 C0.66 0 1.32 0 2 0 C2 31.68 2 63.36 2 96 C-11.53 96 -25.06 96 -39 96 C-31.32672956 92.16336478 -22.39040543 92.76315021 -13.9375 92.4375 C-8.5234375 92.2209375 -8.5234375 92.2209375 -3 92 C-3 84.41 -3 76.82 -3 69 C-2.34 69 -1.68 69 -1 69 C-0.505 79.395 -0.505 79.395 0 90 C0.33 61.95 0.66 33.9 1 5 C0.34 5 -0.32 5 -1 5 C-1 6.65 -1 8.3 -1 10 C-3.31 10.66 -5.62 11.32 -8 12 C-7.05128129 10.57692193 -6.10183223 9.1543246 -5.1484375 7.734375 C-4.0317213 6.04790563 -2.95271069 4.33665816 -1.875 2.625 C-1.25625 1.75875 -0.6375 0.8925 0 0 Z " fill="#3082B1" transform="translate(347,59)"/>
<path d="M0 0 C0.33 0 0.66 0 1 0 C1.02338141 12.10234413 1.04104447 24.2046827 1.05181217 36.30704498 C1.05698543 41.92931426 1.06397936 47.55156786 1.07543945 53.17382812 C1.08646931 58.62037811 1.09231841 64.0669132 1.09487724 69.51347351 C1.09669592 71.57020807 1.10024498 73.626942 1.10573006 75.68367004 C1.13405273 86.76536759 1.00318666 97.82278423 0.55639648 108.89648438 C0.51754113 109.87566078 0.47868578 110.85483719 0.43865299 111.86368561 C0.1830753 117.61476829 -0.30150439 123.28557323 -1 129 C-1.33 129 -1.66 129 -2 129 C-2.02505615 128.07888428 -2.0501123 127.15776855 -2.07592773 126.20874023 C-2.17240118 122.71403898 -2.27152732 119.21943206 -2.37231445 115.72485352 C-2.41500533 114.22683548 -2.45670945 112.72878892 -2.49731445 111.23071289 C-2.74291344 102.19812792 -3.13018875 93.20792948 -3.84375 84.19921875 C-4.04884158 79.99996857 -3.65460883 76.1458559 -3 72 C-2.67 72 -2.34 72 -2 72 C-1.34 48.24 -0.68 24.48 0 0 Z " fill="#22467D" transform="translate(348,280)"/>
<path d="M0 0 C2 2 2 2 2.125 4.625 C2.08375 5.40875 2.0425 6.1925 2 7 C1.01 7 0.02 7 -1 7 C-3.02125972 10.03188958 -3.26674093 10.97943425 -3.5 14.4375 C-3.67238013 16.98441644 -3.85252553 18.71126646 -5.01953125 20.99609375 C-6.17980968 23.36749948 -6.23578133 25.00025144 -6.1875 27.625 C-6.18105469 28.40101563 -6.17460937 29.17703125 -6.16796875 29.9765625 C-6.12050633 32.0687268 -6.12050633 32.0687268 -5 34 C-5.99 34 -6.98 34 -8 34 C-8 36.64 -8 39.28 -8 42 C-7.01 42.33 -6.02 42.66 -5 43 C-5.37125 43.66 -5.7425 44.32 -6.125 45 C-7.18583708 48.6371557 -6.57187887 50.52216268 -5.41015625 54.03515625 C-4.92995368 56.3355552 -5.28503153 57.78606314 -6 60 C-6.99 60 -7.98 60 -9 60 C-13.48318127 41.06121688 -12.93960083 19.22182766 -3 2 C-2.01 1.34 -1.02 0.68 0 0 Z " fill="#3F6590" transform="translate(237,150)"/>
<path d="M0 0 C0.33 0 0.66 0 1 0 C1.33 4.62 1.66 9.24 2 14 C1.67 14 1.34 14 1 14 C0.91170939 17.79151583 0.85918054 21.58276165 0.8125 25.375 C0.78736328 26.43589844 0.76222656 27.49679687 0.73632812 28.58984375 C0.67903998 34.81515586 1.24801037 40.05680922 3.29541016 45.95117188 C4.20456727 48.59484704 4.58008904 51.24058515 5 54 C5.62564249 56.6785319 6.31120602 59.33666329 7 62 C7.66 62 8.32 62 9 62 C8.505 64.97 8.505 64.97 8 68 C8.66 68.33 9.32 68.66 10 69 C10.59355614 71.64860427 10.74209269 74.29197322 11 77 C10.01 77.495 10.01 77.495 9 78 C9 77.34 9 76.68 9 76 C8.01 75.67 7.02 75.34 6 75 C-1.85087767 58.96988096 -2.37798688 38.38133633 -2.375 20.875 C-2.37681274 20.17660004 -2.37862549 19.47820007 -2.38049316 18.75863647 C-2.37680868 6.26031254 -2.37680868 6.26031254 0 0 Z " fill="#283566" transform="translate(180,234)"/>
<path d="M0 0 C0.66 0 1.32 0 2 0 C2.0093457 0.64324219 2.01869141 1.28648437 2.02832031 1.94921875 C2.36558093 20.49193976 4.82493407 35.82689137 12 53 C11.34 53.66 10.68 54.32 10 55 C9.67 54.34 9.34 53.68 9 53 C7.68 53 6.36 53 5 53 C4 50 4 50 5 47 C4.34 47 3.68 47 3 47 C2.95101562 46.24976563 2.90203125 45.49953125 2.8515625 44.7265625 C2.17834287 35.51041797 0.68914622 26.83576614 -2 18 C-2.66 18 -3.32 18 -4 18 C-3.48914188 11.56318772 -2.27057103 6.04057576 0 0 Z " fill="#2B4875" transform="translate(213,178)"/>
<path d="M0 0 C0.495 0.99 0.495 0.99 1 2 C1.66 2 2.32 2 3 2 C3.495 3.485 3.495 3.485 4 5 C-2.92333557 7.41511706 -8.71590635 8.14282537 -16 8 C-16 8.99 -16 9.98 -16 11 C-16.94875 10.95875 -17.8975 10.9175 -18.875 10.875 C-22.10244856 10.65026182 -22.10244856 10.65026182 -24 13 C-24.99 12.67 -25.98 12.34 -27 12 C-29.33703822 12.46269741 -29.33703822 12.46269741 -31.8125 13.3125 C-32.69679688 13.5909375 -33.58109375 13.869375 -34.4921875 14.15625 C-36.4902162 14.82848396 -38.46808938 15.56054322 -40.4375 16.3125 C-41.7059375 16.6528125 -41.7059375 16.6528125 -43 17 C-43.99 16.34 -44.98 15.68 -46 15 C-33.13804755 8.49311006 -20.37432683 4.93493153 -6.046875 3.58984375 C-2.91653366 2.98384177 -1.8751892 2.50704643 0 0 Z " fill="#277DAE" transform="translate(316,99)"/>
<path d="M0 0 C0.66 0.33 1.32 0.66 2 1 C2.495 2.485 2.495 2.485 3 4 C2.2575 4.433125 1.515 4.86625 0.75 5.3125 C-1.61833926 6.76579909 -3.80924065 8.29607606 -6 10 C-5.67 10.66 -5.34 11.32 -5 12 C-6.65 12 -8.3 12 -10 12 C-10.99 14.31 -11.98 16.62 -13 19 C-13.66 18.67 -14.32 18.34 -15 18 C-17.08333333 18.16666667 -17.08333333 18.16666667 -19 19 C-19.33 19.99 -19.66 20.98 -20 22 C-20.66 22 -21.32 22 -22 22 C-22.0825 22.556875 -22.165 23.11375 -22.25 23.6875 C-23.23895541 26.73677919 -24.84757466 28.65189963 -27 31 C-27.66 31 -28.32 31 -29 31 C-29.4021875 32.2065625 -29.4021875 32.2065625 -29.8125 33.4375 C-30.4003125 34.7059375 -30.4003125 34.7059375 -31 36 C-32.485 36.495 -32.485 36.495 -34 37 C-32.63912664 33.21528255 -30.90678334 30.1993308 -28.5625 26.9375 C-27.96566406 26.10089844 -27.36882812 25.26429688 -26.75390625 24.40234375 C-25.88572266 23.21318359 -25.88572266 23.21318359 -25 22 C-24.20916016 20.85724609 -24.20916016 20.85724609 -23.40234375 19.69140625 C-22.93957031 19.13324219 -22.47679687 18.57507813 -22 18 C-21.34 18 -20.68 18 -20 18 C-19.731875 17.360625 -19.46375 16.72125 -19.1875 16.0625 C-18 14 -18 14 -15 13 C-14.67 12.01 -14.34 11.02 -14 10 C-12.22265625 8.39453125 -12.22265625 8.39453125 -10.0625 6.8125 C-9.35222656 6.28269531 -8.64195312 5.75289063 -7.91015625 5.20703125 C-6 4 -6 4 -4 4 C-4 3.34 -4 2.68 -4 2 C-2.125 0.9375 -2.125 0.9375 0 0 Z " fill="#407097" transform="translate(268,115)"/>
<path d="M0 0 C0.33 0.66 0.66 1.32 1 2 C0.07421875 4.13671875 0.07421875 4.13671875 -1.3125 6.6875 C-5.18831033 14.18216086 -6.59687886 21.74546818 -8 30 C-8.66 30 -9.32 30 -10 30 C-10 27.03 -10 24.06 -10 21 C-10.99 21 -11.98 21 -13 21 C-13.99 21 -14.98 21 -16 21 C-16.33 21.99 -16.66 22.98 -17 24 C-17.66 24 -18.32 24 -19 24 C-19 23.34 -19 22.68 -19 22 C-18.34 22 -17.68 22 -17 22 C-16.7525 21.278125 -16.505 20.55625 -16.25 19.8125 C-14.86693509 16.70060396 -13.20877083 14.58741726 -11 12 C-10.195625 11.01 -9.39125 10.02 -8.5625 9 C-6.15839685 6.18544022 -3.65268357 3.57899791 -1 1 C-0.67 0.67 -0.34 0.34 0 0 Z " fill="#2F4A76" transform="translate(224,146)"/>
<path d="M0 0 C0.625 1.8125 0.625 1.8125 1 4 C0.01 5.485 0.01 5.485 -1 7 C-1.66 7 -2.32 7 -3 7 C-3 7.99 -3 8.98 -3 10 C-2.34 10.33 -1.68 10.66 -1 11 C-1 12.65 -1 14.3 -1 16 C-3.66666667 16.66666667 -6.33333333 17.33333333 -9 18 C-9.185625 19.175625 -9.185625 19.175625 -9.375 20.375 C-10 23 -10 23 -12 25 C-12.99 25 -13.98 25 -15 25 C-16.30183807 20.57690479 -16.30183807 20.57690479 -14.96777344 18.02709961 C-14.43700195 17.40843018 -13.90623047 16.78976074 -13.359375 16.15234375 C-12.78316406 15.46462891 -12.20695312 14.77691406 -11.61328125 14.06835938 C-10.99839844 13.36517578 -10.38351562 12.66199219 -9.75 11.9375 C-8.55696152 10.53022773 -7.36424307 9.12268409 -6.171875 7.71484375 C-5.6365918 7.09730225 -5.10130859 6.47976074 -4.54980469 5.84350586 C-2.95577688 3.94739622 -1.46854907 1.9943293 0 0 Z M-1 9 C1 10 1 10 1 10 Z " fill="#378DBE" transform="translate(338,71)"/>
<path d="M0 0 C1.65 0.33 3.3 0.66 5 1 C6.33864281 5.01592843 6.13067772 8.87474284 6.11352539 13.0612793 C6.11367142 13.98830658 6.11381744 14.91533386 6.1139679 15.87045288 C6.11327054 18.93839854 6.10548637 22.00628368 6.09765625 25.07421875 C6.09579144 27.1998542 6.09436784 29.32549007 6.09336853 31.4511261 C6.08954829 37.04889103 6.07972219 42.64663007 6.06866455 48.24438477 C6.05843984 53.95523732 6.05386863 59.66609406 6.04882812 65.37695312 C6.03809951 76.5846468 6.02102897 87.79232125 6 99 C5.34 99 4.68 99 4 99 C4 66.99 4 34.98 4 2 C2.35 3.32 0.7 4.64 -1 6 C-1.33 5.01 -1.66 4.02 -2 3 C-1.34 2.01 -0.68 1.02 0 0 Z " fill="#E4FCFE" transform="translate(346,56)"/>
<path d="M0 0 C4.82520445 -0.33664217 6.94818823 0.52938307 11 3 C14.69523952 3.71923208 14.69523952 3.71923208 18 4 C18.33 4.99 18.66 5.98 19 7 C20.175625 6.773125 21.35125 6.54625 22.5625 6.3125 C27.2116614 5.69924163 29.89316512 6.8610235 34 9 C34 9.99 34 10.98 34 12 C35.32 12 36.64 12 38 12 C38 12.66 38 13.32 38 14 C24.56168039 12.34868106 12.12119786 6.80379389 0 1 C0 0.67 0 0.34 0 0 Z " fill="#2A3367" transform="translate(261,395)"/>
<path d="M0 0 C0.33 0 0.66 0 1 0 C1 11.55 1 23.1 1 35 C-2.48178451 35.6963569 -5.03977585 36.12757171 -8.46875 36.1328125 C-9.28730469 36.13410156 -10.10585938 36.13539063 -10.94921875 36.13671875 C-11.79097656 36.13285156 -12.63273437 36.12898438 -13.5 36.125 C-14.76263672 36.13080078 -14.76263672 36.13080078 -16.05078125 36.13671875 C-20.16268987 36.1302433 -23.99018972 36.03531987 -28 35 C-28 34.34 -28 33.68 -28 33 C-26.92516357 33.00785522 -26.92516357 33.00785522 -25.82861328 33.01586914 C-22.59408438 33.03660667 -19.35956944 33.04964984 -16.125 33.0625 C-14.99707031 33.07087891 -13.86914062 33.07925781 -12.70703125 33.08789062 C-11.09248047 33.09272461 -11.09248047 33.09272461 -9.4453125 33.09765625 C-7.95281982 33.10551147 -7.95281982 33.10551147 -6.43017578 33.11352539 C-3.99039227 33.1639415 -3.99039227 33.1639415 -2 32 C-0.78362531 25.23341234 -0.68772123 18.35852286 -0.4375 11.5 C-0.39431641 10.39140625 -0.35113281 9.2828125 -0.30664062 8.140625 C-0.20137786 5.42718494 -0.09924154 2.71366583 0 0 Z " fill="#1F3362" transform="translate(348,376)"/>
<path d="M0 0 C1.32 0.66 2.64 1.32 4 2 C3.46964629 8.18745992 -0.55102835 10.73616423 -4.99609375 14.61328125 C-8.69875992 17.55519156 -12.51965291 20.37525875 -17 22 C-17.66 21.67 -18.32 21.34 -19 21 C-17.875 19.0625 -17.875 19.0625 -16 17 C-12.8125 16.25 -12.8125 16.25 -10 16 C-10 13.69 -10 11.38 -10 9 C-8.68 8.67 -7.36 8.34 -6 8 C-6 8.66 -6 9.32 -6 10 C-4.68 10 -3.36 10 -2 10 C-2 9.01 -2 8.02 -2 7 C-1.34 7 -0.68 7 0 7 C0 4.69 0 2.38 0 0 Z " fill="#7B7C7C" transform="translate(379,384)"/>
<path d="M0 0 C2.64 0.33 5.28 0.66 8 1 C9.15941038 4.47823115 8.70820884 6.45895578 8 10 C9.98 10.66 11.96 11.32 14 12 C13.67 12.99 13.34 13.98 13 15 C13.66 15 14.32 15 15 15 C15.33 16.98 15.66 18.96 16 21 C10.85196844 18.69226171 8.83257521 15.91658052 6.1171875 10.98046875 C4.50305326 8.11904896 2.72549558 5.36688769 0.953125 2.6015625 C0 1 0 1 0 0 Z " fill="#232966" transform="translate(199,335)"/>
<path d="M0 0 C0.66 0 1.32 0 2 0 C1.67 4.29 1.34 8.58 1 13 C0.01 13 -0.98 13 -2 13 C-1.34 13.33 -0.68 13.66 0 14 C-0.28875 14.53625 -0.5775 15.0725 -0.875 15.625 C-2.16711808 18.35280484 -3.08558592 21.12612718 -4 24 C-5.625 22.5625 -5.625 22.5625 -7 20 C-6.61481692 12.86697996 -3.13881821 6.27763642 0 0 Z M-3 21 C-1 22 -1 22 -1 22 Z " fill="#2B477A" transform="translate(191,194)"/>
<path d="M0 0 C0.99 0.33 1.98 0.66 3 1 C2.979375 1.78375 2.95875 2.5675 2.9375 3.375 C2.81315937 5.98114961 2.81315937 5.98114961 4 8 C3.01 8 2.02 8 1 8 C1 10.64 1 13.28 1 16 C1.99 16.33 2.98 16.66 4 17 C3.62875 17.66 3.2575 18.32 2.875 19 C1.81416292 22.6371557 2.42812113 24.52216268 3.58984375 28.03515625 C4.07004632 30.3355552 3.71496847 31.78606314 3 34 C2.34 34 1.68 34 1 34 C-0.44265305 26.5935223 -1.19400042 19.47067298 -1.1875 11.9375 C-1.1884668 10.84900757 -1.1884668 10.84900757 -1.18945312 9.73852539 C-1.15466669 6.36068382 -1.04834513 3.228903 0 0 Z " fill="#235895" transform="translate(228,176)"/>
<path d="M0 0 C12 4 12 4 14.25 6.3125 C16.50131914 8.51265279 18.00853404 9.68247987 20.6875 11.125 C24 13 24 13 26 16 C25.67 16.99 25.34 17.98 25 19 C22.5 17.625 22.5 17.625 20 16 C20 15.34 20 14.68 20 14 C19.34 14 18.68 14 18 14 C18 13.34 18 12.68 18 12 C16.97326172 11.9071875 16.97326172 11.9071875 15.92578125 11.8125 C11.95375785 10.70945478 9.36800098 8.55291049 6.1875 6 C5.59001953 5.5359375 4.99253906 5.071875 4.37695312 4.59375 C2.89298446 3.42692664 1.44309213 2.21701474 0 1 C0 0.67 0 0.34 0 0 Z " fill="#375C87" transform="translate(268,261)"/>
<path d="M0 0 C0.66 0.66 1.32 1.32 2 2 C-1.65533848 7.54268671 -1.65533848 7.54268671 -5.04589844 8.69580078 C-7.48818871 9.09104563 -9.91005591 9.35056698 -12.375 9.5625 C-21.51635844 10.61740073 -29.37729697 12.845906 -38 16 C-39.32702869 16.35760838 -40.65789645 16.70394775 -42 17 C-41.375 15.0625 -41.375 15.0625 -40 13 C-37.3125 12.3125 -37.3125 12.3125 -34 12 C-32.72125 11.814375 -31.4425 11.62875 -30.125 11.4375 C-29.09375 11.293125 -28.0625 11.14875 -27 11 C-27 10.34 -27 9.68 -27 9 C-26.08504761 8.90295776 -26.08504761 8.90295776 -25.15161133 8.80395508 C-22.36889007 8.4959389 -19.59123058 8.15458204 -16.8125 7.8125 C-15.85279297 7.71130859 -14.89308594 7.61011719 -13.90429688 7.50585938 C-7.81601723 6.79890473 -7.81601723 6.79890473 -2.88671875 3.44921875 C-2.26410156 2.64097656 -1.64148438 1.83273438 -1 1 C-0.67 0.67 -0.34 0.34 0 0 Z " fill="#E2F9FD" transform="translate(316,95)"/>
<path d="M0 0 C0.495 1.98 0.495 1.98 1 4 C-12.53 4 -26.06 4 -40 4 C-31.83929129 -0.08035436 -22.43293758 0.90074514 -13.5 1 C-11.15629466 1.02536478 -8.81253761 1.04644666 -6.46875 1.0625 C-5.44201172 1.07410156 -4.41527344 1.08570313 -3.35742188 1.09765625 C-1.04256282 1.2683075 -1.04256282 1.2683075 0 0 Z " fill="#3F7CA0" transform="translate(348,151)"/>
<path d="M0 0 C0.99 0.495 0.99 0.495 2 1 C2.33 8.92 2.66 16.84 3 25 C2.34 25 1.68 25 1 25 C1 32.92 1 40.84 1 49 C0.67 49 0.34 49 0 49 C0 32.83 0 16.66 0 0 Z " fill="#B8B9B9" transform="translate(356,271)"/>
<path d="M0 0 C0.33 0 0.66 0 1 0 C1.08636719 0.55945313 1.17273438 1.11890625 1.26171875 1.6953125 C2.44199942 8.4304921 4.55700253 14.62551822 6.9765625 20.99609375 C8 24 8 24 8 27 C7.34 27 6.68 27 6 27 C5.67 26.01 5.34 25.02 5 24 C4.01 24.33 3.02 24.66 2 25 C1.34 24.67 0.68 24.34 0 24 C0.29296875 21.98177083 0.5859375 19.96354167 0.87890625 17.9453125 C1.1684297 15.91859333 1.1684297 15.91859333 0 14 C-0.07116382 11.62597499 -0.08409085 9.24999323 -0.0625 6.875 C-0.05347656 5.59367188 -0.04445312 4.31234375 -0.03515625 2.9921875 C-0.02355469 2.00476563 -0.01195312 1.01734375 0 0 Z " fill="#F1F5F4" transform="translate(226,200)"/>
<path d="M0 0 C0.33 0 0.66 0 1 0 C1 9.57 1 19.14 1 29 C2.65 28.67 4.3 28.34 6 28 C8.45703125 28.33984375 8.45703125 28.33984375 10.8125 28.9375 C11.60269531 29.13214844 12.39289063 29.32679688 13.20703125 29.52734375 C13.79871094 29.68332031 14.39039063 29.83929688 15 30 C15.33 29.34 15.66 28.68 16 28 C16.33 28.99 16.66 29.98 17 31 C11.92281793 33.53859104 5.67646212 32 0 32 C0 21.44 0 10.88 0 0 Z " fill="#808081" transform="translate(417,276)"/>
<path d="M0 0 C3.40510369 1.52914379 6.10165188 3.53334679 9 5.875 C9.845625 6.55304688 10.69125 7.23109375 11.5625 7.9296875 C13.84133465 9.86523616 15.99489697 11.78139063 18 14 C18 14.66 18 15.32 18 16 C17.34 16 16.68 16 16 16 C15.67 15.34 15.34 14.68 15 14 C13.02 14.99 13.02 14.99 11 16 C11 15.01 11 14.02 11 13 C10.01 13.33 9.02 13.66 8 14 C8 11.69 8 9.38 8 7 C7.236875 7.061875 6.47375 7.12375 5.6875 7.1875 C3 7 3 7 1.1875 5.75 C0 4 0 4 0 0 Z " fill="#9B9D9E" transform="translate(472,120)"/>
<path d="M0 0 C1.2375 0.33 2.475 0.66 3.75 1 C11.39514852 2.69087013 19.7116311 3.23927507 27 0 C26.67 1.65 26.34 3.3 26 5 C16.77313776 6.59216126 8.95270399 5.13850014 0 3 C0 2.01 0 1.02 0 0 Z " fill="#2A3E68" transform="translate(300,358)"/>
<path d="M0 0 C0.33 0 0.66 0 1 0 C1.125 2.375 1.125 2.375 1 5 C0.34 5.66 -0.32 6.32 -1 7 C-1.46290221 9.66242821 -1.46290221 9.66242821 -1.625 12.625 C-1.69976562 13.62789062 -1.77453125 14.63078125 -1.8515625 15.6640625 C-1.90054688 16.43492187 -1.94953125 17.20578125 -2 18 C-4.49064888 18.68707555 -6.37886292 19 -9 19 C-8.40173858 14.93773113 -7.07227596 11.94247518 -5.0625 8.375 C-4.53785156 7.43398437 -4.01320312 6.49296875 -3.47265625 5.5234375 C-2.37647718 3.64510413 -1.20636068 1.80954102 0 0 Z " fill="#2E487E" transform="translate(202,173)"/>
<path d="M0 0 C0.66 0.33 1.32 0.66 2 1 C1.236875 1.70125 0.47375 2.4025 -0.3125 3.125 C-2.9998197 5.99980712 -4.31425089 8.4819149 -6 12 C-6.70125 12.86625 -7.4025 13.7325 -8.125 14.625 C-9.93230491 16.91425288 -10.49968281 18.19822375 -11 21 C-11.33 21.33 -11.66 21.66 -12 22 C-12.21326403 27.6047709 -12.21326403 27.6047709 -11 33 C-11.66 33.99 -12.32 34.98 -13 36 C-15.64997552 26.06259179 -13.6795268 17.98996416 -9 9 C-7.45703125 6.6484375 -7.45703125 6.6484375 -6 5 C-5.34 5 -4.68 5 -4 5 C-4 4.34 -4 3.68 -4 3 C-2 1.375 -2 1.375 0 0 Z " fill="#D4EAF5" transform="translate(290,161)"/>
<path d="M0 0 C4.47391218 -0.39475696 7.09237244 0.91593197 11 3 C11.66 3 12.32 3 13 3 C13.66 4.65 14.32 6.3 15 8 C15.66 8 16.32 8 17 8 C17.33 9.65 17.66 11.3 18 13 C11.59850949 9.58587173 5.69271569 5.49858364 0 1 C0 0.67 0 0.34 0 0 Z " fill="#41648E" transform="translate(314,294)"/>
<path d="M0 0 C-3.1254959 2.64465038 -6.08788267 3.84414715 -10 5 C-10 5.66 -10 6.32 -10 7 C-11.99284138 8.3440093 -13.99419671 9.67541292 -16 11 C-17.70328319 12.6292274 -19.38161281 14.28641357 -21 16 C-21.99 15.67 -22.98 15.34 -24 15 C-23.9375 13.25 -23.9375 13.25 -23 11 C-19.7838181 8.55272534 -17.07605096 7 -13 7 C-13 6.34 -13 5.68 -13 5 C-9.05749279 1.15080657 -5.61124245 -0.68429786 0 0 Z " fill="#DCF3FA" transform="translate(274,112)"/>
<path d="M0 0 C0.99 0 1.98 0 3 0 C3.33 1.98 3.66 3.96 4 6 C4.66 6 5.32 6 6 6 C9 12.625 9 12.625 9 16 C4.25 15.25 4.25 15.25 2 13 C1.04972401 10.14917204 0.70808784 7.78896626 0.4375 4.8125 C0.35371094 3.91144531 0.26992187 3.01039063 0.18359375 2.08203125 C0.12300781 1.39496094 0.06242188 0.70789063 0 0 Z " fill="#283B74" transform="translate(231,292)"/>
<path d="M0 0 C0.66 0.33 1.32 0.66 2 1 C2.33 1.99 2.66 2.98 3 4 C2.2575 4.433125 1.515 4.86625 0.75 5.3125 C-1.61833926 6.76579909 -3.80924065 8.29607606 -6 10 C-5.67 10.66 -5.34 11.32 -5 12 C-6.98 12 -8.96 12 -11 12 C-11.33 11.01 -11.66 10.02 -12 9 C-6.25 4 -6.25 4 -4 4 C-4 3.34 -4 2.68 -4 2 C-2.125 0.9375 -2.125 0.9375 0 0 Z " fill="#2C70A4" transform="translate(268,115)"/>
<path d="M0 0 C1.98 0 3.96 0 6 0 C3.56029102 2.43970898 1.32328361 3.21755865 -1.875 4.5 C-5.32135974 5.88870516 -8.70455034 7.28063496 -12 9 C-12 9.66 -12 10.32 -12 11 C-12.66 11 -13.32 11 -14 11 C-14.268125 11.53625 -14.53625 12.0725 -14.8125 12.625 C-16.20833333 15.41666667 -17.60416667 18.20833333 -19 21 C-19.33 21 -19.66 21 -20 21 C-20 19.02 -20 17.04 -20 15 C-19.01 14.67 -18.02 14.34 -17 14 C-16.31379969 12.67661368 -15.65213539 11.34050052 -15 10 C-12.6875 6.75 -12.6875 6.75 -10 4 C-7.1875 3.625 -7.1875 3.625 -5 4 C-5 3.34 -5 2.68 -5 2 C-3.35 2 -1.7 2 0 2 C0 1.34 0 0.68 0 0 Z " fill="#41759A" transform="translate(298,155)"/>
<path d="M0 0 C0.99 0 1.98 0 3 0 C3.17015625 0.84304687 3.3403125 1.68609375 3.515625 2.5546875 C3.75796875 3.65039062 4.0003125 4.74609375 4.25 5.875 C4.48203125 6.96554688 4.7140625 8.05609375 4.953125 9.1796875 C5.7269658 12.11920993 5.7269658 12.11920993 8.109375 13.3828125 C8.73328125 13.58648437 9.3571875 13.79015625 10 14 C9.67 15.98 9.34 17.96 9 20 C3.89821369 15.62704031 1.0847785 10.13119822 0.25 3.5 C0.1675 2.345 0.085 1.19 0 0 Z " fill="#2E5683" transform="translate(230,211)"/>
<path d="M0 0 C4.06225548 0.57823096 6.84762346 1.89117737 10.3125 4.0625 C11.19550781 4.61035156 12.07851563 5.15820312 12.98828125 5.72265625 C13.65214844 6.14417969 14.31601562 6.56570312 15 7 C11.58860997 8.09651823 8.79344419 7.94215473 5.25 7.5625 C4.26515625 7.46066406 3.2803125 7.35882813 2.265625 7.25390625 C1.51796875 7.17011719 0.7703125 7.08632812 0 7 C-1.04449911 3.86650268 -0.93423645 3.01031744 0 0 Z " fill="#949799" transform="translate(457,112)"/>
<path d="M0 0 C0.99 0 1.98 0 3 0 C2.12598087 20.18112987 2.12598087 20.18112987 1.5625 27.6875 C1.50191406 28.49574219 1.44132813 29.30398438 1.37890625 30.13671875 C1 32 1 32 -1 34 C-1.11858127 22.61619816 -0.86612792 11.35246238 0 0 Z " fill="#264275" transform="translate(225,240)"/>
<path d="M0 0 C0.33 0.66 0.66 1.32 1 2 C1.66 2 2.32 2 3 2 C3.33 2.99 3.66 3.98 4 5 C-0.24860767 5.5326386 -4.49903225 6.0490656 -8.75 6.5625 C-10.55984375 6.78969727 -10.55984375 6.78969727 -12.40625 7.02148438 C-14.14648438 7.2293457 -14.14648438 7.2293457 -15.921875 7.44140625 C-17.52434082 7.63778687 -17.52434082 7.63778687 -19.15917969 7.83813477 C-21.75583919 7.98608812 -23.55233537 7.80814243 -26 7 C-12.47245317 3.94042682 -12.47245317 3.94042682 -6.8125 3.5 C-2.87859273 2.98407774 -2.39915616 2.79282574 0 0 Z " fill="#5994B3" transform="translate(316,99)"/>
<path d="M0 0 C1.65 0 3.3 0 5 0 C4.67 1.32 4.34 2.64 4 4 C2.68 4.33 1.36 4.66 0 5 C-0.12375 5.78375 -0.2475 6.5675 -0.375 7.375 C-1 10 -1 10 -3 12 C-3.99 12 -4.98 12 -6 12 C-6.75 9.8125 -6.75 9.8125 -7 7 C-5.25 4.1875 -5.25 4.1875 -3 2 C-2.01 2 -1.02 2 0 2 C0 1.34 0 0.68 0 0 Z " fill="#368EC0" transform="translate(329,84)"/>
<path d="M0 0 C0.99 0.33 1.98 0.66 3 1 C3 2.32 3 3.64 3 5 C5.42672567 6.78969026 5.42672567 6.78969026 8 8 C7.67 9.98 7.34 11.96 7 14 C7.66 14 8.32 14 9 14 C9.625 15.875 9.625 15.875 10 18 C9.34 18.66 8.68 19.32 8 20 C6.65673469 17.42141033 5.32525335 14.83782579 4 12.25 C3.42765625 11.15558594 3.42765625 11.15558594 2.84375 10.0390625 C2.4828125 9.33007812 2.121875 8.62109375 1.75 7.890625 C1.41484375 7.24125977 1.0796875 6.59189453 0.734375 5.92285156 C0 4 0 4 0 0 Z " fill="#212A5C" transform="translate(190,314)"/>
<path d="M0 0 C0.66 0 1.32 0 2 0 C2 6.93 2 13.86 2 21 C1.67 21 1.34 21 1 21 C1 15.72 1 10.44 1 5 C0.34 5 -0.32 5 -1 5 C-1 6.65 -1 8.3 -1 10 C-3.31 10.66 -5.62 11.32 -8 12 C-7.05128129 10.57692193 -6.10183223 9.1543246 -5.1484375 7.734375 C-4.0317213 6.04790563 -2.95271069 4.33665816 -1.875 2.625 C-1.25625 1.75875 -0.6375 0.8925 0 0 Z " fill="#498CB3" transform="translate(347,59)"/>
<path d="M0 0 C0.66 0 1.32 0 2 0 C1.99476318 1.00377686 1.98952637 2.00755371 1.98413086 3.04174805 C1.9659826 6.77839257 1.95453213 10.51503321 1.94506836 14.25170898 C1.94005058 15.86662451 1.93323489 17.48153552 1.92456055 19.09643555 C1.91238286 21.42237465 1.90674605 23.7482535 1.90234375 26.07421875 C1.89718246 26.79212082 1.89202118 27.51002289 1.88670349 28.24967957 C1.88629124 31.96290232 2.11055784 35.38991122 3 39 C1.515 39.495 1.515 39.495 0 40 C0 26.8 0 13.6 0 0 Z " fill="#858687" transform="translate(356,368)"/>
<path d="M0 0 C0.33 0 0.66 0 1 0 C1.25451584 4.10300923 1.47426446 8.20715476 1.6875 12.3125 C1.76033203 13.47974609 1.83316406 14.64699219 1.90820312 15.84960938 C1.96298828 16.96787109 2.01777344 18.08613281 2.07421875 19.23828125 C2.13182373 20.26993408 2.18942871 21.30158691 2.2487793 22.36450195 C2 25 2 25 0.62036133 26.73510742 C0.08564209 27.15252197 -0.44907715 27.56993652 -1 28 C-1.66 28.66 -2.32 29.32 -3 30 C-3 29.01 -3 28.02 -3 27 C-3.66 26.67 -4.32 26.34 -5 26 C-4.525625 25.278125 -4.05125 24.55625 -3.5625 23.8125 C-0.74695199 18.74451357 -0.74685441 13.36237839 -0.4375 7.6875 C-0.37272461 6.57665039 -0.37272461 6.57665039 -0.30664062 5.44335938 C-0.20129568 3.62908536 -0.10021684 1.8145645 0 0 Z " fill="#2B5080" transform="translate(340,323)"/>
<path d="M0 0 C0.99 0 1.98 0 3 0 C2.44271087 3.34373475 1.64826111 6.03312999 0 9 C-1.66666667 9 -3.33333333 9 -5 9 C-5.33 9.99 -5.66 10.98 -6 12 C-6.66 12 -7.32 12 -8 12 C-6.06382979 5.29787234 -6.06382979 5.29787234 -3 3 C-2.34 3 -1.68 3 -1 3 C-0.67 2.01 -0.34 1.02 0 0 Z " fill="#286599" transform="translate(254,125)"/>
<path d="M0 0 C4.01065219 2.1167331 6.29194113 4.38925484 9 8 C10.95089858 10.10697047 12.55999486 11.37332991 15 13 C15.1875 15.625 15.1875 15.625 15 18 C14.278125 17.2575 13.55625 16.515 12.8125 15.75 C10.14127166 13.03305551 10.14127166 13.03305551 7.5 11.0625 C4.49652142 8.58463017 2.32830146 6.12657625 0 3 C0 2.01 0 1.02 0 0 Z " fill="#BCBDBF" transform="translate(378,268)"/>
<path d="M0 0 C1.65 0 3.3 0 5 0 C5 0.66 5 1.32 5 2 C5.66 2 6.32 2 7 2 C7 1.34 7 0.68 7 0 C8.32 0 9.64 0 11 0 C11 1.98 11 3.96 11 6 C8.69 6 6.38 6 4 6 C3.34 4.68 2.68 3.36 2 2 C1.34 2 0.68 2 0 2 C0 1.34 0 0.68 0 0 Z " fill="#26528C" transform="translate(309,288)"/>
<path d="M0 0 C1.32 0 2.64 0 4 0 C2.43358249 4.30764815 0.31663844 8.06171464 -2 12 C-2.66 11.67 -3.32 11.34 -4 11 C-4.1953125 4.9453125 -4.1953125 4.9453125 -4 3 C-3.34 2.34 -2.68 1.68 -2 1 C-1.34 1.33 -0.68 1.66 0 2 C0 1.34 0 0.68 0 0 Z " fill="#EDF5F7" transform="translate(196,176)"/>
<path d="M0 0 C0.99 0.33 1.98 0.66 3 1 C1.73046875 2.49739583 0.4609375 3.99479167 -0.80859375 5.4921875 C-2.0878152 7.00594079 -2.0878152 7.00594079 -3 9 C-3.66 9 -4.32 9 -5 9 C-5.66 10.65 -6.32 12.3 -7 14 C-7.99 14 -8.98 14 -10 14 C-9.34 12.35 -8.68 10.7 -8 9 C-7.34 9 -6.68 9 -6 9 C-5.938125 8.2575 -5.87625 7.515 -5.8125 6.75 C-4.74158364 3.12536 -3.1708131 1.9628843 0 0 Z " fill="#E1EEF4" transform="translate(210,159)"/>
<path d="M0 0 C1.258125 0.12375 2.51625 0.2475 3.8125 0.375 C4.87404297 0.47941406 4.87404297 0.47941406 5.95703125 0.5859375 C8 1 8 1 11 3 C12.9971365 3.03221188 14.99555573 3.05916359 16.9921875 3.00390625 C19.42353155 2.99917601 21.64602657 3.41150664 24 4 C24 4.33 24 4.66 24 5 C17.25 5.125 17.25 5.125 15 4 C15 4.66 15 5.32 15 6 C13.54119891 5.85892253 12.08296449 5.71197585 10.625 5.5625 C9.40683594 5.44068359 9.40683594 5.44068359 8.1640625 5.31640625 C6 5 6 5 4 4 C4 3.34 4 2.68 4 2 C2.68 2 1.36 2 0 2 C0 1.34 0 0.68 0 0 Z " fill="#223063" transform="translate(295,405)"/>
<path d="M0 0 C4.80358345 0.58225254 8.06335186 2.27462821 12 5 C12.9375 7.75 12.9375 7.75 13 10 C10.5625 9.1875 10.5625 9.1875 8 8 C7.67 7.01 7.34 6.02 7 5 C5.33927151 4.31867549 3.672233 3.65257873 2 3 C1.34 2.01 0.68 1.02 0 0 Z " fill="#DCEFF5" transform="translate(283,207)"/>
<path d="M0 0 C-0.99 0.33 -1.98 0.66 -3 1 C-2.34 1.66 -1.68 2.32 -1 3 C-2.68478769 3.47174055 -4.3696167 3.94333422 -6.0546875 4.4140625 C-7.81336412 4.94378437 -9.53570333 5.59065513 -11.25 6.25 C-12.61125 6.62125 -12.61125 6.62125 -14 7 C-14.99 6.34 -15.98 5.68 -17 5 C-14.9237343 3.96486753 -12.83868521 2.94733789 -10.75 1.9375 C-9.58984375 1.36902344 -8.4296875 0.80054687 -7.234375 0.21484375 C-4.09355667 -0.96485975 -3.00646952 -1.30230734 0 0 Z " fill="#4582AD" transform="translate(287,109)"/>
<path d="M0 0 C3.11189447 0.63779819 5.52617979 1.68325198 8.25 3.3125 C8.95640625 3.72113281 9.6628125 4.12976563 10.390625 4.55078125 C10.92171875 5.02902344 11.4528125 5.50726563 12 6 C12 7.32 12 8.64 12 10 C10.02 9.34 8.04 8.68 6 8 C6 7.34 6 6.68 6 6 C5.34 6 4.68 6 4 6 C3.67 5.34 3.34 4.68 3 4 C2.01 3.34 1.02 2.68 0 2 C0 1.34 0 0.68 0 0 Z " fill="#326793" transform="translate(322,238)"/>
<path d="M0 0 C0.66 0.33 1.32 0.66 2 1 C2 1.66 2 2.32 2 3 C1.34 3 0.68 3 0 3 C0 7.62 0 12.24 0 17 C-0.66 17.33 -1.32 17.66 -2 18 C-3.35983509 15.76236091 -4.03642251 14.46273139 -3.828125 11.81640625 C-3.63734375 11.07261719 -3.4465625 10.32882813 -3.25 9.5625 C-3.05148438 8.78132812 -2.85296875 8.00015625 -2.6484375 7.1953125 C-1.91778686 4.72166393 -1.06184486 2.35122791 0 0 Z M0 15 C2 16 2 16 2 16 Z " fill="#38527B" transform="translate(188,200)"/>
<path d="M0 0 C2.875 0.3125 2.875 0.3125 6 1 C8 4 8 4 7.625 6.1875 C7.41875 6.785625 7.2125 7.38375 7 8 C3.54074837 6.7508258 0.85306797 5.32472205 -2 3 C-1.34 2.01 -0.68 1.02 0 0 Z " fill="#E5ECF0" transform="translate(280,344)"/>
<path d="M0 0 C1.61077851 3.22155702 0.03568428 6.30190702 -0.875 9.625 C-2.36145647 15.08900894 -3.40458585 20.36256817 -4 26 C-4.33 26 -4.66 26 -5 26 C-5.22497815 20.01308152 -4.94744386 14.69961809 -3.33984375 8.91015625 C-2.80542576 6.78786719 -2.80542576 6.78786719 -4 4 C-2.68 2.68 -1.36 1.36 0 0 Z " fill="#D4DEEC" transform="translate(183,214)"/>
<path d="M0 0 C0.639375 0.268125 1.27875 0.53625 1.9375 0.8125 C5.91202261 2.35364142 9.94884495 3.67609312 14 5 C10.3046875 7.03125 10.3046875 7.03125 7.5625 6.75 C4.95850149 5.98785409 2.49303838 5.06844502 0 4 C0 2.68 0 1.36 0 0 Z " fill="#344476" transform="translate(286,352)"/>
<path d="M0 0 C1.73152958 1.07955259 3.46011684 2.16382512 5.1875 3.25 C6.15042969 3.85328125 7.11335938 4.4565625 8.10546875 5.078125 C12.07141269 7.71138333 15.71827475 10.54555237 19 14 C14.14309191 13.5584629 12.20727439 12.62111625 9 9 C6.27003717 6.66954393 4.41693206 5.13897735 1 4 C0.3125 1.9375 0.3125 1.9375 0 0 Z " fill="#396A90" transform="translate(299,220)"/>
<path d="M0 0 C2 0 2 0 3.5 1.4375 C3.995 1.953125 4.49 2.46875 5 3 C5.66 3.33 6.32 3.66 7 4 C7 4.66 7 5.32 7 6 C7.99 6 8.98 6 10 6 C10.33 7.65 10.66 9.3 11 11 C10.34 11 9.68 11 9 11 C9 10.34 9 9.68 9 9 C8.278125 8.773125 7.55625 8.54625 6.8125 8.3125 C3.46790687 6.75168987 1.48396041 4.6968713 -1 2 C-0.67 1.34 -0.34 0.68 0 0 Z " fill="#E0E6EE" transform="translate(267,336)"/>
<path d="M0 0 C3 0.1875 3 0.1875 5 1.1875 C4.67 2.1775 4.34 3.1675 4 4.1875 C1.93359375 4.91796875 1.93359375 4.91796875 -0.5625 5.375 C-1.38878906 5.53355469 -2.21507812 5.69210937 -3.06640625 5.85546875 C-4.02353516 6.01982422 -4.02353516 6.01982422 -5 6.1875 C-5 1.45201892 -4.81233018 0.30077064 0 0 Z " fill="#8D8F8E" transform="translate(454,296.8125)"/>
<path d="M0 0 C12.26923077 1.26923077 12.26923077 1.26923077 16 5 C11.05 5 6.1 5 1 5 C2.32 4.67 3.64 4.34 5 4 C5 3.34 5 2.68 5 2 C3.35 1.67 1.7 1.34 0 1 C0 0.67 0 0.34 0 0 Z " fill="#959799" transform="translate(432,104)"/>
<path d="M0 0 C12 4 12 4 13.1875 6.0625 C13.455625 6.701875 13.72375 7.34125 14 8 C13.01 8.33 12.02 8.66 11 9 C8.30078125 7.3828125 8.30078125 7.3828125 5.3125 5.125 C4.31863281 4.38507813 3.32476562 3.64515625 2.30078125 2.8828125 C1.54152344 2.26148438 0.78226562 1.64015625 0 1 C0 0.67 0 0.34 0 0 Z " fill="#3A5B84" transform="translate(268,261)"/>
<path d="M0 0 C2.97 0 5.94 0 9 0 C8.01 0.495 8.01 0.495 7 1 C6.34444881 3.52733235 6.34444881 3.52733235 6 6 C5.01 5.67 4.02 5.34 3 5 C2.01 5.33 1.02 5.66 0 6 C0 4.02 0 2.04 0 0 Z " fill="#969799" transform="translate(417,258)"/>
<path d="M0 0 C8.44646925 6.15034169 8.44646925 6.15034169 12 10 C10.265625 10.69921875 10.265625 10.69921875 8 11 C5.859375 9.70703125 5.859375 9.70703125 3.75 7.8125 C3.04359375 7.20019531 2.3371875 6.58789062 1.609375 5.95703125 C0 4 0 4 0 0 Z " fill="#DFEBF3" transform="translate(250,248)"/>
<path d="M0 0 C2 2 2 2 2.125 4.625 C2.08375 5.40875 2.0425 6.1925 2 7 C1.01 7 0.02 7 -1 7 C-1.33 7.66 -1.66 8.32 -2 9 C-2.66 9 -3.32 9 -4 9 C-4.8125 7.3125 -4.8125 7.3125 -5 5 C-2.5625 2.25 -2.5625 2.25 0 0 Z " fill="#316497" transform="translate(237,150)"/>
<path d="M0 0 C1.32 0 2.64 0 4 0 C2.16508812 4.74018901 0.08058541 9.36413251 -2 14 C-4.046875 10.28125 -4.046875 10.28125 -3.625 7.75 C-3.41875 7.1725 -3.2125 6.595 -3 6 C-2.34 6 -1.68 6 -1 6 C-0.67 4.02 -0.34 2.04 0 0 Z " fill="#E4F4F9" transform="translate(234,144)"/>
<path d="M0 0 C3.28416237 3.16252673 6.31433225 6.31679852 9 10 C8.8125 12.375 8.8125 12.375 8 14 C6.66666667 12.66666667 5.33333333 11.33333333 4 10 C3.1646875 9.3503125 3.1646875 9.3503125 2.3125 8.6875 C0.26351826 6.05309491 0.30636007 3.2474167 0 0 Z " fill="#3D6E97" transform="translate(279,202)"/>
<path d="M0 0 C0.66666667 1.33333333 1.33333333 2.66666667 2 4 C2.3403125 4.598125 2.680625 5.19625 3.03125 5.8125 C4.15674272 8.35393517 4.40675506 10.48556409 4.625 13.25 C4.69976562 14.14203125 4.77453125 15.0340625 4.8515625 15.953125 C4.90054688 16.62859375 4.94953125 17.3040625 5 18 C4.01 18 3.02 18 2 18 C1.66191314 15.93827387 1.32972639 13.8755797 1 11.8125 C0.814375 10.66394531 0.62875 9.51539063 0.4375 8.33203125 C0.06510523 5.49584607 -0.08596021 2.85280436 0 0 Z " fill="#28518A" transform="translate(227,192)"/>
<path d="M0 0 C8.91 1.485 8.91 1.485 18 3 C18 3.33 18 3.66 18 4 C15.69 4.66 13.38 5.32 11 6 C10.34 5.34 9.68 4.68 9 4 C7.68 4 6.36 4 5 4 C2 3 2 3 0 2 C0 1.34 0 0.68 0 0 Z " fill="#DAE2EF" transform="translate(294,408)"/>
<path d="M0 0 C1.32 0.66 2.64 1.32 4 2 C3.91433603 4.912575 3.42089045 6.56798024 1.375 8.66796875 C-0.38391375 10.16091772 -2.16313019 11.60436262 -4 13 C-4 12.01 -4 11.02 -4 10 C-3.34 10 -2.68 10 -2 10 C-2 9.01 -2 8.02 -2 7 C-1.34 7 -0.68 7 0 7 C0 4.69 0 2.38 0 0 Z " fill="#858786" transform="translate(379,384)"/>
<path d="M0 0 C4.92307692 4.30769231 4.92307692 4.30769231 5.3125 7.8125 C5.209375 8.534375 5.10625 9.25625 5 10 C4.34 10 3.68 10 3 10 C2.67 9.34 2.34 8.68 2 8 C1.01 8 0.02 8 -1 8 C-0.67 7.01 -0.34 6.02 0 5 C-0.31478446 3.66216607 -0.64587656 2.32796291 -1 1 C-0.67 0.67 -0.34 0.34 0 0 Z " fill="#A5A8AA" transform="translate(497,144)"/>
<path d="M0 0 C1.66666667 1.66666667 3.33333333 3.33333333 5 5 C5.9075 5.886875 6.815 6.77375 7.75 7.6875 C10 10 10 10 11 12 C7.25828935 11.49436343 5.4428972 10.88706033 3 8 C2.443125 7.54625 1.88625 7.0925 1.3125 6.625 C-0.48870754 4.39493352 -0.2257749 2.7845571 0 0 Z " fill="#3A4D76" transform="translate(251,323)"/>
<path d="M0 0 C3.39417765 3.12621626 5.6062718 5.56541027 7 10 C4.525 9.01 4.525 9.01 2 8 C2 7.34 2 6.68 2 6 C1.01 5.67 0.02 5.34 -1 5 C-0.67 3.35 -0.34 1.7 0 0 Z " fill="#D6E6ED" transform="translate(330,306)"/>
<path d="M0 0 C2.6074028 -0.38344159 4.38063153 -0.374232 6.66796875 1.0078125 C8.3125 2.3125 8.3125 2.3125 11 5 C11 5.99 11 6.98 11 8 C6.40378078 6.5129879 3.53027653 4.20187872 0 1 C0 0.67 0 0.34 0 0 Z " fill="#D6EAF2" transform="translate(306,224)"/>
<path d="M0 0 C1.5625 1.25 1.5625 1.25 3 3 C2.6875 5 2.6875 5 2 7 C2 7.99 2 8.98 2 10 C1.01 10.33 0.02 10.66 -1 11 C-2.66710346 12.49985609 -2.66710346 12.49985609 -4 14 C-3.79503906 13.32453125 -3.59007812 12.6490625 -3.37890625 11.953125 C-3.10949219 11.06109375 -2.84007812 10.1690625 -2.5625 9.25 C-2.16224609 7.92742187 -2.16224609 7.92742187 -1.75390625 6.578125 C-1.11531506 4.39434165 -0.53224167 2.21164502 0 0 Z " fill="#D5D6D8" transform="translate(468,214)"/>
<path d="M0 0 C0.33 0 0.66 0 1 0 C1 5.94 1 11.88 1 18 C0.67 17.34 0.34 16.68 0 16 C-0.66 16 -1.32 16 -2 16 C-1.85936865 13.70800823 -1.71234057 11.41640814 -1.5625 9.125 C-1.48128906 7.84882813 -1.40007812 6.57265625 -1.31640625 5.2578125 C-1 2 -1 2 0 0 Z " fill="#2E608C" transform="translate(275,179)"/>
<path d="M0 0 C0.33 0 0.66 0 1 0 C1.125 2.375 1.125 2.375 1 5 C0.34 5.66 -0.32 6.32 -1 7 C-1 8.32 -1 9.64 -1 11 C-2.98 11.66 -4.96 12.32 -7 13 C-5.37621488 8.27626146 -2.89006982 4.05818166 0 0 Z " fill="#415980" transform="translate(202,173)"/>
<path d="M0 0 C4.29 1.65 8.58 3.3 13 5 C8.836056 7.081972 8.31501488 7 4 7 C3.67 6.01 3.34 5.02 3 4 C2.01 3.34 1.02 2.68 0 2 C0 1.34 0 0.68 0 0 Z " fill="#E7EAF4" transform="translate(271,400)"/>
<path d="M0 0 C0.99 0.495 0.99 0.495 2 1 C3.2943008 6.95378366 3.09874503 12.93266655 3 19 C0.25902195 16.25902195 0.01426141 14.49002207 -0.09765625 10.64453125 C-0.08605469 9.37996094 -0.07445312 8.11539062 -0.0625 6.8125 C-0.05347656 5.54019531 -0.04445312 4.26789063 -0.03515625 2.95703125 C-0.02355469 1.98121094 -0.01195312 1.00539063 0 0 Z " fill="#1B295C" transform="translate(181,276)"/>
<path d="M0 0 C5.39040653 -0.53904065 9.62871165 0.88063194 14 4 C14.33 4.99 14.66 5.98 15 7 C9.57903298 5.64475824 4.9221313 3.63365987 0 1 C0 0.67 0 0.34 0 0 Z " fill="#3C406D" transform="translate(261,395)"/>
<path d="M0 0 C2.4375 0.375 2.4375 0.375 5 1 C5.33 1.66 5.66 2.32 6 3 C5.67 3.66 5.34 4.32 5 5 C6.32 5.33 7.64 5.66 9 6 C8.67 6.99 8.34 7.98 8 9 C6.65826597 8.07456291 5.32679841 7.13422595 4 6.1875 C3.2575 5.66542969 2.515 5.14335937 1.75 4.60546875 C1.1725 4.07566406 0.595 3.54585938 0 3 C0 2.01 0 1.02 0 0 Z " fill="#262B62" transform="translate(226,368)"/>
<path d="M0 0 C0.66 0 1.32 0 2 0 C2 6.27 2 12.54 2 19 C1.67 19 1.34 19 1 19 C0.95101562 18.14535156 0.90203125 17.29070312 0.8515625 16.41015625 C0.77679688 15.30542969 0.70203125 14.20070312 0.625 13.0625 C0.55539063 11.96035156 0.48578125 10.85820312 0.4140625 9.72265625 C0.27742187 8.82417969 0.14078125 7.92570313 0 7 C-0.66 6.67 -1.32 6.34 -2 6 C-1.34 4.02 -0.68 2.04 0 0 Z " fill="#425F81" transform="translate(213,178)"/>
<path d="M0 0 C0.66 0.33 1.32 0.66 2 1 C-2.455 6.94 -2.455 6.94 -7 13 C-7.33 12.01 -7.66 11.02 -8 10 C-6.1875 6.8125 -6.1875 6.8125 -4 4 C-3.34 4 -2.68 4 -2 4 C-2 3.34 -2 2.68 -2 2 C-1.34 2 -0.68 2 0 2 C0 1.34 0 0.68 0 0 Z " fill="#DBF5FB" transform="translate(327,82)"/>
<path d="M0 0 C2.83374881 3.20336822 3.5205537 5.78087253 4 10 C2.35 9.67 0.7 9.34 -1 9 C-1.33 8.01 -1.66 7.02 -2 6 C-1.34 6 -0.68 6 0 6 C0 4.02 0 2.04 0 0 Z " fill="#3B4E81" transform="translate(236,298)"/>
<path d="M0 0 C0 3 0 3 -1.53125 4.60546875 C-2.1809375 5.12753906 -2.830625 5.64960938 -3.5 6.1875 C-4.1496875 6.71730469 -4.799375 7.24710937 -5.46875 7.79296875 C-5.9740625 8.19128906 -6.479375 8.58960938 -7 9 C-7.66 8.67 -8.32 8.34 -9 8 C-9 6.68 -9 5.36 -9 4 C-7.68 4.33 -6.36 4.66 -5 5 C-5 4.34 -5 3.68 -5 3 C-4.34 3 -3.68 3 -3 3 C-3 2.34 -3 1.68 -3 1 C-2.01 0.67 -1.02 0.34 0 0 Z " fill="#A6A7A8" transform="translate(484,280)"/>
<path d="M0 0 C5.75 1.75 5.75 1.75 8 4 C8.66 4 9.32 4 10 4 C10.33 4.99 10.66 5.98 11 7 C9.375 7.8125 9.375 7.8125 7 8 C1.33333333 4 1.33333333 4 0 0 Z " fill="#3C6088" transform="translate(247,244)"/>
<path d="M0 0 C1.65 0 3.3 0 5 0 C4.67 1.32 4.34 2.64 4 4 C3.38125 4.103125 2.7625 4.20625 2.125 4.3125 C-0.36526484 4.87525373 -0.36526484 4.87525373 -2 8 C-3.125 4.25 -3.125 4.25 -2 2 C-1.34 2 -0.68 2 0 2 C0 1.34 0 0.68 0 0 Z " fill="#2589C2" transform="translate(329,84)"/>
<path d="M0 0 C0.33 0.66 0.66 1.32 1 2 C1.66 2 2.32 2 3 2 C3 2.66 3 3.32 3 4 C3.66 4 4.32 4 5 4 C8.125 10.625 8.125 10.625 7 14 C5.82508418 12.23462904 4.66031316 10.46250287 3.5 8.6875 C2.8503125 7.70136719 2.200625 6.71523438 1.53125 5.69921875 C0 3 0 3 0 0 Z " fill="#2F547B" transform="translate(332,305)"/>
<path d="M0 0 C3.67230705 3.07999946 4.56802365 5.2482602 5 10 C3.02 10.99 3.02 10.99 1 12 C1.020625 10.948125 1.04125 9.89625 1.0625 8.8125 C1.01103198 5.67295096 0.73482813 3.03116604 0 0 Z " fill="#B8BAB9" transform="translate(392,302)"/>
<path d="M0 0 C0.33 0 0.66 0 1 0 C1.33820166 1.5823006 1.67035939 3.16589375 2 4.75 C2.185625 5.63171875 2.37125 6.5134375 2.5625 7.421875 C3 10 3 10 3 14 C2.34 14 1.68 14 1 14 C0.67 14.66 0.34 15.32 0 16 C-0.71033431 10.47032059 -1.30267176 5.50016964 0 0 Z " fill="#D5DBE8" transform="translate(179,280)"/>
<path d="M0 0 C2.3125 0.1875 2.3125 0.1875 4 1 C4 1.99 4 2.98 4 4 C1.42786866 5.61949011 0.32330841 6.04408751 -2.75 5.625 C-3.4925 5.41875 -4.235 5.2125 -5 5 C-2.75 2.4375 -2.75 2.4375 0 0 Z " fill="#AFAFAF" transform="translate(444,250)"/>
<path d="M0 0 C1.32 0 2.64 0 4 0 C4 0.66 4 1.32 4 2 C5.65 2 7.3 2 9 2 C10.125 5.75 10.125 5.75 9 8 C7.49712782 6.85793642 5.99776716 5.71125043 4.5 4.5625 C3.6646875 3.92441406 2.829375 3.28632813 1.96875 2.62890625 C1.3190625 2.09136719 0.669375 1.55382812 0 1 C0 0.67 0 0.34 0 0 Z " fill="#D2E9F2" transform="translate(317,232)"/>
<path d="M0 0 C-1.91603157 0.64771508 -3.83285113 1.29309948 -5.75 1.9375 C-6.81734375 2.29714844 -7.8846875 2.65679687 -8.984375 3.02734375 C-11.31735725 3.77982119 -13.61374995 4.44977244 -16 5 C-15.375 3.0625 -15.375 3.0625 -14 1 C-11.1875 0.3125 -11.1875 0.3125 -8 0 C-7.113125 -0.20625 -6.22625 -0.4125 -5.3125 -0.625 C-3 -1 -3 -1 0 0 Z " fill="#D8F2F9" transform="translate(290,107)"/>
<path d="M0 0 C0.598125 0.309375 1.19625 0.61875 1.8125 0.9375 C4.08956772 2.10209704 4.08956772 2.10209704 7 3 C7.33 5.31 7.66 7.62 8 10 C6.87105124 9.06725891 5.74699124 8.12859878 4.625 7.1875 C3.99851563 6.66542969 3.37203125 6.14335937 2.7265625 5.60546875 C1 4 1 4 -1 1 C-0.67 0.67 -0.34 0.34 0 0 Z " fill="#1B205C" transform="translate(217,358)"/>
<path d="M0 0 C0.33 0.99 0.66 1.98 1 3 C0.67 3.66 0.34 4.32 0 5 C-6.93 4.505 -6.93 4.505 -14 4 C-14 3.67 -14 3.34 -14 3 C-13.15695312 2.86722656 -12.31390625 2.73445313 -11.4453125 2.59765625 C-10.34960938 2.42105469 -9.25390625 2.24445313 -8.125 2.0625 C-6.48917969 1.80146484 -6.48917969 1.80146484 -4.8203125 1.53515625 C-2.06178454 1.14448841 -2.06178454 1.14448841 0 0 Z " fill="#3F557F" transform="translate(326,358)"/>
<path d="M0 0 C0.99 0.33 1.98 0.66 3 1 C3.33 3.64 3.66 6.28 4 9 C3.01 9.495 3.01 9.495 2 10 C2 9.34 2 8.68 2 8 C1.34 8 0.68 8 0 8 C0 5.36 0 2.72 0 0 Z " fill="#202868" transform="translate(187,302)"/>
<path d="M0 0 C1 2 2 4 3 6 C2.01 7.485 2.01 7.485 1 9 C-0.32 9 -1.64 9 -3 9 C-2.01 6.03 -1.02 3.06 0 0 Z " fill="#D9E2E7" transform="translate(222,151)"/>
<path d="M0 0 C0.66 0.33 1.32 0.66 2 1 C2.33 1.99 2.66 2.98 3 4 C-1.75 6.875 -1.75 6.875 -4 8 C-4 6.02 -4 4.04 -4 2 C-2.125 0.9375 -2.125 0.9375 0 0 Z " fill="#3B7FAC" transform="translate(268,115)"/>
<path d="M0 0 C1.32 1.32 2.64 2.64 4 4 C3.01 5.485 3.01 5.485 2 7 C1.67 6.34 1.34 5.68 1 5 C-0.32 5 -1.64 5 -3 5 C-3.33 4.01 -3.66 3.02 -4 2 C-3.34 1.67 -2.68 1.34 -2 1 C-1.34 1.33 -0.68 1.66 0 2 C0 1.34 0 0.68 0 0 Z " fill="#2C4780" transform="translate(221,226)"/>
<path d="M0 0 C0.33 0 0.66 0 1 0 C1.22155127 2.93705131 1.42774197 5.87380363 1.625 8.8125 C1.68945312 9.64587891 1.75390625 10.47925781 1.8203125 11.33789062 C1.871875 12.14033203 1.9234375 12.94277344 1.9765625 13.76953125 C2.02893066 14.50792236 2.08129883 15.24631348 2.13525391 16.00708008 C2 18 2 18 0 21 C-1.19600901 16.50832172 -0.9185704 12.26730207 -0.5625 7.6875 C-0.51029297 6.94693359 -0.45808594 6.20636719 -0.40429688 5.44335938 C-0.27549848 3.62847291 -0.13856738 1.81416675 0 0 Z " fill="#637D9F" transform="translate(340,323)"/>
<path d="M0 0 C0.33 0 0.66 0 1 0 C1.33 4.29 1.66 8.58 2 13 C0.02 13.99 0.02 13.99 -2 15 C-1.855625 14.01 -1.71125 13.02 -1.5625 12 C-0.99074821 8.00590535 -0.49180166 4.00467063 0 0 Z " fill="#BCBEBD" transform="translate(404,272)"/>
<path d="M0 0 C3.00092657 2.25069493 3.21031306 4.94640878 4 8.5 C2.125 8.3125 2.125 8.3125 0 7.5 C-1.125 5.0625 -1.125 5.0625 -2 2.5 C-2.66 1.84 -3.32 1.18 -4 0.5 C-2 -0.5 -2 -0.5 0 0 Z " fill="#25528A" transform="translate(294,272.5)"/>
<path d="M0 0 C2.51100916 1.25550458 2.84591575 2.31919616 4.0625 4.8125 C4.57490234 5.84310547 4.57490234 5.84310547 5.09765625 6.89453125 C5.96535994 8.91917319 6.53169072 10.85157081 7 13 C3.34117479 9.6378363 0.85579659 6.63949148 -1 2 C-0.67 1.34 -0.34 0.68 0 0 Z " fill="#34567C" transform="translate(240,231)"/>
<path d="M0 0 C2.625 -0.1875 2.625 -0.1875 5 0 C5 0.99 5 1.98 5 3 C6.32 3 7.64 3 9 3 C9 3.66 9 4.32 9 5 C5.37 4.34 1.74 3.68 -2 3 C-1.34 2.01 -0.68 1.02 0 0 Z " fill="#3E4471" transform="translate(290,404)"/>
<path d="M0 0 C1.14926266 0.95421808 2.29430541 1.91352045 3.4375 2.875 C4.07558594 3.40867187 4.71367187 3.94234375 5.37109375 4.4921875 C7 6 7 6 8 8 C6.35 8 4.7 8 3 8 C3 7.01 3 6.02 3 5 C2.01 5 1.02 5 0 5 C0 3.35 0 1.7 0 0 Z " fill="#CBCEE3" transform="translate(216,360)"/>
<path d="M0 0 C2.33333333 2.33333333 4.66666667 4.66666667 7 7 C7 8.32 7 9.64 7 11 C6.34 11 5.68 11 5 11 C4.16151196 9.54462432 3.32936066 8.08559627 2.5 6.625 C1.80390625 5.40683594 1.80390625 5.40683594 1.09375 4.1640625 C0 2 0 2 0 0 Z " fill="#AEB2B3" transform="translate(375,82)"/>
<path d="M0 0 C0.33 0 0.66 0 1 0 C1 4.95 1 9.9 1 15 C0.01 15.495 0.01 15.495 -1 16 C-1 15.34 -1 14.68 -1 14 C-1.66 14 -2.32 14 -3 14 C-3 13.34 -3 12.68 -3 12 C-2.34 11.67 -1.68 11.34 -1 11 C-0.5316735 8.41394668 -0.5316735 8.41394668 -0.375 5.4375 C-0.30023438 4.42558594 -0.22546875 3.41367188 -0.1484375 2.37109375 C-0.09945313 1.58863281 -0.05046875 0.80617187 0 0 Z " fill="#D4D4D6" transform="translate(405,237)"/>
<path d="M0 0 C2.475 0.495 2.475 0.495 5 1 C4.67 2.98 4.34 4.96 4 7 C2 5.1875 2 5.1875 0 3 C0 2.01 0 1.02 0 0 Z " fill="#264E84" transform="translate(235,224)"/>
<path d="M0 0 C3.71599191 -0.20086443 4.77208445 -0.1519437 8 2 C8 3.32 8 4.64 8 6 C4.63408134 4.55746343 2.48952921 2.66735273 0 0 Z " fill="#D6EAF2" transform="translate(296,217)"/>
<path d="M0 0 C2.31 0.33 4.62 0.66 7 1 C7.33 2.65 7.66 4.3 8 6 C1.125 2.25 1.125 2.25 0 0 Z " fill="#47698C" transform="translate(324,301)"/>
<path d="M0 0 C0.99 0 1.98 0 3 0 C3.28571429 8.57142857 3.28571429 8.57142857 1 12 C0.01751476 7.9472484 -0.08159574 4.16138263 0 0 Z " fill="#415681" transform="translate(225,240)"/>
<path d="M0 0 C0.66 0.33 1.32 0.66 2 1 C1.25 7.75 1.25 7.75 -1 10 C-2.46726798 6.18510326 -1.43336419 3.70988378 0 0 Z " fill="#233C68" transform="translate(184,214)"/>
<path d="M0 0 C0.625 1.8125 0.625 1.8125 1 4 C-1.21934164 7.32901247 -2.34683329 7.75023244 -6 9 C-4.47291037 5.56404834 -2.40072955 2.88087546 0 0 Z " fill="#5397BB" transform="translate(338,71)"/>
<path d="M0 0 C0.33 0.66 0.66 1.32 1 2 C0.22265625 3.9453125 0.22265625 3.9453125 -0.9375 6.125 C-1.31777344 6.84945312 -1.69804687 7.57390625 -2.08984375 8.3203125 C-2.54037109 9.15175781 -2.54037109 9.15175781 -3 10 C-3.33 9.34 -3.66 8.68 -4 8 C-4.99 7.67 -5.98 7.34 -7 7 C-4.66666667 4.66666667 -2.33333333 2.33333333 0 0 Z " fill="#505B75" transform="translate(224,146)"/>
<path d="M0 0 C1.32 0.99 2.64 1.98 4 3 C0.37 3.33 -3.26 3.66 -7 4 C-7 3.34 -7 2.68 -7 2 C-3.75 0.8125 -3.75 0.8125 0 0 Z " fill="#313D68" transform="translate(345,408)"/>
<path d="M0 0 C3.71599191 -0.20086443 4.77208445 -0.1519437 8 2 C7.67 3.32 7.34 4.64 7 6 C5.83054208 5.19152271 4.66449539 4.37810888 3.5 3.5625 C2.8503125 3.11003906 2.200625 2.65757812 1.53125 2.19140625 C1.0259375 1.79824219 0.520625 1.40507812 0 1 C0 0.67 0 0.34 0 0 Z " fill="#D7ECF5" transform="translate(328,240)"/>
<path d="M0 0 C2.64 0.66 5.28 1.32 8 2 C7.34 2.66 6.68 3.32 6 4 C4.68 4 3.36 4 2 4 C2 3.34 2 2.68 2 2 C1.34 2 0.68 2 0 2 C0 1.34 0 0.68 0 0 Z M1 4 C1.33 4.66 1.66 5.32 2 6 C1.34 5.67 0.68 5.34 0 5 C0.33 4.67 0.66 4.34 1 4 Z " fill="#296799" transform="translate(313,233)"/>
<path d="M0 0 C1.125 1.75 1.125 1.75 2 4 C1.125 6.25 1.125 6.25 0 8 C-1.5625 6.1875 -1.5625 6.1875 -3 4 C-2.67 3.01 -2.34 2.02 -2 1 C-1.34 0.67 -0.68 0.34 0 0 Z " fill="#E7F0F3" transform="translate(220,144)"/>
<path d="M0 0 C2.38564077 0.57584432 4.66682784 1.22227595 7 2 C7 2.66 7 3.32 7 4 C4.125 4.125 4.125 4.125 1 4 C0.34 3.34 -0.32 2.68 -1 2 C-0.67 1.34 -0.34 0.68 0 0 Z " fill="#9B9C9C" transform="translate(449,108)"/>
<path d="M0 0 C0.33 0.99 0.66 1.98 1 3 C1.99 3.33 2.98 3.66 4 4 C4.6875 6.0625 4.6875 6.0625 5 8 C3.125 7.8125 3.125 7.8125 1 7 C-0.3125 4.5625 -0.3125 4.5625 -1 2 C-0.67 1.34 -0.34 0.68 0 0 Z " fill="#215791" transform="translate(338,309)"/>
<path d="M0 0 C0.66 0.66 1.32 1.32 2 2 C4.58354218 2.16687448 4.58354218 2.16687448 7 2 C6.67 2.99 6.34 3.98 6 5 C4.34385343 5.38218767 2.67542976 5.71395102 1 6 C0 5 0 5 -0.0625 2.4375 C-0.041875 1.633125 -0.02125 0.82875 0 0 Z " fill="#293E7A" transform="translate(234,305)"/>
<path d="M0 0 C2.625 -0.1875 2.625 -0.1875 5 0 C4.67 0.99 4.34 1.98 4 3 C3.34 3 2.68 3 2 3 C1.67 3.66 1.34 4.32 1 5 C0.01 4.34 -0.98 3.68 -2 3 C-1.34 2.01 -0.68 1.02 0 0 Z " fill="#E7F1F3" transform="translate(212,153)"/>
<path d="M0 0 C0.66 0 1.32 0 2 0 C5 3.46153846 5 3.46153846 5 6 C3.68 6.33 2.36 6.66 1 7 C0.67 4.69 0.34 2.38 0 0 Z " fill="#A0A1A3" transform="translate(491,137)"/>
<path d="M0 0 C0.33 0.99 0.66 1.98 1 3 C-1.35953094 5.35953094 -2.77895617 5.49141413 -6 6 C-6 4.68 -6 3.36 -6 2 C-4.02 2 -2.04 2 0 2 C0 1.34 0 0.68 0 0 Z " fill="#213E81" transform="translate(326,361)"/>
<path d="M0 0 C1.32 0.66 2.64 1.32 4 2 C4 2.66 4 3.32 4 4 C2.35 4.33 0.7 4.66 -1 5 C-1 1 -1 1 0 0 Z " fill="#878988" transform="translate(450,298)"/>
<path d="M0 0 C2.97 0.99 5.94 1.98 9 3 C8.67 3.99 8.34 4.98 8 6 C4.63408134 4.55746343 2.48952921 2.66735273 0 0 Z " fill="#4A6A8F" transform="translate(268,261)"/>
<path d="M0 0 C1.3410477 0.75733274 2.67269781 1.53132736 4 2.3125 C5.11375 2.95638672 5.11375 2.95638672 6.25 3.61328125 C6.8275 4.07089844 7.405 4.52851563 8 5 C8 5.99 8 6.98 8 8 C6 8 6 8 3.4375 5.6875 C1 3 1 3 0 0 Z " fill="#336891" transform="translate(335,246)"/>
<path d="M0 0 C2.35953094 2.35953094 2.49141413 3.77895617 3 7 C1.68 7.33 0.36 7.66 -1 8 C-2 6 -2 6 -1.0625 2.875 C-0.5365625 1.451875 -0.5365625 1.451875 0 0 Z " fill="#4A6187" transform="translate(220,220)"/>
<path d="M0 0 C0.33 0.66 0.66 1.32 1 2 C0.0625 4.625 0.0625 4.625 -1 7 C-2.65 7 -4.3 7 -6 7 C-4.625 5 -4.625 5 -3 3 C-2.34 3 -1.68 3 -1 3 C-0.67 2.01 -0.34 1.02 0 0 Z " fill="#4479A1" transform="translate(254,125)"/>
<path d="M0 0 C0.33 0.66 0.66 1.32 1 2 C1.66 2 2.32 2 3 2 C3.33 2.99 3.66 3.98 4 5 C1.69 4.67 -0.62 4.34 -3 4 C-2.01 2.68 -1.02 1.36 0 0 Z " fill="#3F8EBF" transform="translate(316,99)"/>
<path d="M0 0 C3.42298577 1.14099526 4.14758766 2.00085621 6 5 C6 5.99 6 6.98 6 8 C5.34 8 4.68 8 4 8 C0 2.58823529 0 2.58823529 0 0 Z " fill="#AAABAC" transform="translate(368,74)"/>
<path d="M0 0 C1.65 0.33 3.3 0.66 5 1 C4.67 1.66 4.34 2.32 4 3 C3.34 3 2.68 3 2 3 C0.37485532 4.45833358 0.37485532 4.45833358 -1 6 C-1.33 5.01 -1.66 4.02 -2 3 C-1.34 2.01 -0.68 1.02 0 0 Z " fill="#E2F6FA" transform="translate(346,56)"/>
<path d="M0 0 C0.99 0 1.98 0 3 0 C3 1.32 3 2.64 3 4 C1.02 4.99 1.02 4.99 -1 6 C-1.042721 4.33388095 -1.04063832 2.66617115 -1 1 C-0.67 0.67 -0.34 0.34 0 0 Z " fill="#757776" transform="translate(370,392)"/>
<path d="M0 0 C1.98 0.99 1.98 0.99 4 2 C4 3.32 4 4.64 4 6 C2.68 6 1.36 6 0 6 C0 4.02 0 2.04 0 0 Z " fill="#7E807F" transform="translate(379,384)"/>
<path d="M0 0 C0.33 1.32 0.66 2.64 1 4 C-0.98 4 -2.96 4 -5 4 C-5 3.01 -5 2.02 -5 1 C-2 0 -2 0 0 0 Z " fill="#707070" transform="translate(423,304)"/>
<path d="M0 0 C0.66 1.32 1.32 2.64 2 4 C1.01 4.33 0.02 4.66 -1 5 C-2.32 3.68 -3.64 2.36 -5 1 C-2 0 -2 0 0 0 Z " fill="#274F81" transform="translate(327,297)"/>
<path d="M0 0 C2.97 0.495 2.97 0.495 6 1 C3.63707344 3.52588702 2.33537489 4.88820837 -1 6 C-0.67 5.01 -0.34 4.02 0 3 C0.66 3 1.32 3 2 3 C2 2.34 2 1.68 2 1 C1.34 0.67 0.68 0.34 0 0 Z " fill="#9E9E9E" transform="translate(468,289)"/>
<path d="M0 0 C2.64 0.33 5.28 0.66 8 1 C7.01 1.495 7.01 1.495 6 2 C6 2.66 6 3.32 6 4 C6.66 4 7.32 4 8 4 C7.67 4.66 7.34 5.32 7 6 C5.83054208 5.19152271 4.66449539 4.37810888 3.5 3.5625 C2.8503125 3.11003906 2.200625 2.65757812 1.53125 2.19140625 C1.0259375 1.79824219 0.520625 1.40507812 0 1 C0 0.67 0 0.34 0 0 Z " fill="#43658F" transform="translate(303,286)"/>
<path d="M0 0 C3.465 1.98 3.465 1.98 7 4 C5.02 4.99 5.02 4.99 3 6 C1.5 4.6875 1.5 4.6875 0 3 C0 2.01 0 1.02 0 0 Z " fill="#DAEAF4" transform="translate(289,277)"/>
<path d="M0 0 C2.31 0.66 4.62 1.32 7 2 C7.33 3.32 7.66 4.64 8 6 C6.66402348 5.19185349 5.331275 4.37836819 4 3.5625 C3.2575 3.11003906 2.515 2.65757812 1.75 2.19140625 C1.1725 1.79824219 0.595 1.40507812 0 1 C0 0.67 0 0.34 0 0 Z " fill="#C3E0ED" transform="translate(336,246)"/>
<path d="M0 0 C0.99 0.66 1.98 1.32 3 2 C2.67 2.99 2.34 3.98 2 5 C0.68 5 -0.64 5 -2 5 C-2 3.68 -2 2.36 -2 1 C-1.34 0.67 -0.68 0.34 0 0 Z " fill="#F9F8F0" transform="translate(233,235)"/>
<path d="M0 0 C0.66 0 1.32 0 2 0 C2 2.31 2 4.62 2 7 C1.34 7 0.68 7 0 7 C-0.33 7.66 -0.66 8.32 -1 9 C-0.67 6.03 -0.34 3.06 0 0 Z " fill="#3A5176" transform="translate(180,227)"/>
<path d="M0 0 C1.64826111 2.96687001 2.44271087 5.65626525 3 9 C2.01 8.67 1.02 8.34 0 8 C-1.22393475 5.04215769 -0.96516243 3.00272755 0 0 Z " fill="#DDEBF4" transform="translate(228,210)"/>
<path d="M0 0 C1.32 0.99 2.64 1.98 4 3 C3.67 5.64 3.34 8.28 3 11 C0.87953208 7.46588679 0.46800711 4.05606165 0 0 Z " fill="#CCDAE6" transform="translate(216,205)"/>
<path d="M0 0 C-0.99 0.495 -0.99 0.495 -2 1 C-2 1.66 -2 2.32 -2 3 C-4.31 3.33 -6.62 3.66 -9 4 C-9 3.34 -9 2.68 -9 2 C-5.86501708 0.14223235 -3.62528568 -0.20140476 0 0 Z " fill="#2D73A4" transform="translate(300,154)"/>
<path d="M0 0 C0.33 0.66 0.66 1.32 1 2 C0.01 2.495 0.01 2.495 -1 3 C-2.0409066 4.64142963 -3.04504326 6.30712215 -4 8 C-4.66 7.01 -5.32 6.02 -6 5 C-4.02 3.35 -2.04 1.7 0 0 Z " fill="#447BA6" transform="translate(262,119)"/>
<path d="M0 0 C0.33 0.99 0.66 1.98 1 3 C-0.65 4.65 -2.3 6.3 -4 8 C-4.25 5.6875 -4.25 5.6875 -4 3 C-2 1.1875 -2 1.1875 0 0 Z " fill="#DDF8FC" transform="translate(335,72)"/>
<path d="M0 0 C1.98 0 3.96 0 6 0 C5.67 1.65 5.34 3.3 5 5 C3.0625 4.1875 3.0625 4.1875 1 3 C0.67 2.01 0.34 1.02 0 0 Z " fill="#BCBDBF" transform="translate(372,264)"/>
<path d="M0 0 C2.46278801 2.46278801 2.99771255 4.70676982 4 8 C3.01 8 2.02 8 1 8 C0.26919734 6.02253397 -0.39421747 4.01927511 -1 2 C-0.67 1.34 -0.34 0.68 0 0 Z " fill="#D4E3ED" transform="translate(231,219)"/>
<path d="M0 0 C0.66 0 1.32 0 2 0 C2 0.99 2 1.98 2 3 C2.66 3 3.32 3 4 3 C4 4.65 4 6.3 4 8 C1.10067643 5.60490662 0.49831724 3.68754757 0 0 Z " fill="#D5F0F9" transform="translate(278,197)"/>
</svg>
